<?xml version="1.0" encoding="UTF-8" standalone="no"?>
<!DOCTYPE svg PUBLIC "-//W3C//DTD SVG 1.1//EN"
 "http://www.w3.org/Graphics/SVG/1.1/DTD/svg11.dtd">
<!-- Generated by graphviz version 2.49.3 (20211023.0002)
 -->
<!-- Title: jeopardy Pages: 1 -->
<svg width="1214pt" height="827pt"
 viewBox="0.00 0.00 1214.00 827.00" xmlns="http://www.w3.org/2000/svg" xmlns:xlink="http://www.w3.org/1999/xlink">
<g id="jeopardy" class="graph" transform="scale(1 1) rotate(0) translate(4 823)">
<title>jeopardy</title>
<polygon fill="white" stroke="transparent" points="-4,4 -4,-823 1210,-823 1210,4 -4,4"/>
<!-- idle -->
<g id="idle" class="node">
<title>idle</title>
<polygon fill="none" stroke="black" points="656,-819 588,-819 588,-783 656,-783 656,-819"/>
<text text-anchor="start" x="596" y="-798.3" font-family="monospace" font-size="14.00"> </text>
<text text-anchor="start" x="605" y="-798.3" font-family="monospace" font-weight="bold" font-size="14.00">idle</text>
<text text-anchor="start" x="639" y="-798.3" font-family="monospace" font-size="14.00"> </text>
</g>
<!-- getClueFromJService -->
<g id="getClueFromJService" class="node">
<title>getClueFromJService</title>
<polygon fill="none" stroke="black" points="258.5,-732 67.5,-732 67.5,-696 258.5,-696 258.5,-732"/>
<text text-anchor="start" x="75.5" y="-711.3" font-family="monospace" font-size="14.00"> </text>
<text text-anchor="start" x="84.5" y="-711.3" font-family="monospace" font-weight="bold" font-size="14.00">getClueFromJService</text>
<text text-anchor="start" x="241.5" y="-711.3" font-family="monospace" font-size="14.00"> </text>
</g>
<!-- idle&#45;&gt;getClueFromJService -->
<g id="idle_to_getClueFromJService" class="edge">
<title>idle&#45;&gt;getClueFromJService</title>
<path fill="none" stroke="black" d="M587.88,-793.68C520.42,-781.19 367.65,-752.9 264.9,-733.87"/>
<polygon fill="black" stroke="black" points="265.28,-730.38 254.81,-732 264.01,-737.26 265.28,-730.38"/>
<text text-anchor="middle" x="497" y="-753.8" font-family="Times New Roman,serif" font-size="14.00">manualTrigger: &quot;startGame&quot;</text>
</g>
<!-- showClueCategoryAndDollars -->
<g id="showClueCategoryAndDollars" class="node">
<title>showClueCategoryAndDollars</title>
<polygon fill="none" stroke="black" points="287.5,-645 38.5,-645 38.5,-609 287.5,-609 287.5,-645"/>
<text text-anchor="start" x="46.5" y="-624.3" font-family="monospace" font-size="14.00"> </text>
<text text-anchor="start" x="55.5" y="-624.3" font-family="monospace" font-weight="bold" font-size="14.00">showClueCategoryAndDollars</text>
<text text-anchor="start" x="270.5" y="-624.3" font-family="monospace" font-size="14.00"> </text>
</g>
<!-- getClueFromJService&#45;&gt;showClueCategoryAndDollars -->
<g id="getClueFromJService_to_showClueCategoryAndDollars" class="edge">
<title>getClueFromJService&#45;&gt;showClueCategoryAndDollars</title>
<path fill="none" stroke="black" d="M163,-695.8C163,-684.16 163,-668.55 163,-655.24"/>
<polygon fill="black" stroke="black" points="166.5,-655.18 163,-645.18 159.5,-655.18 166.5,-655.18"/>
<text text-anchor="middle" x="186" y="-666.8" font-family="Times New Roman,serif" font-size="14.00">promise</text>
</g>
<!-- showClueQuestion -->
<g id="showClueQuestion" class="node">
<title>showClueQuestion</title>
<polygon fill="none" stroke="black" points="246.5,-558 79.5,-558 79.5,-522 246.5,-522 246.5,-558"/>
<text text-anchor="start" x="87.5" y="-537.3" font-family="monospace" font-size="14.00"> </text>
<text text-anchor="start" x="96.5" y="-537.3" font-family="monospace" font-weight="bold" font-size="14.00">showClueQuestion</text>
<text text-anchor="start" x="229.5" y="-537.3" font-family="monospace" font-size="14.00"> </text>
</g>
<!-- showClueCategoryAndDollars&#45;&gt;showClueQuestion -->
<g id="showClueCategoryAndDollars_to_showClueQuestion" class="edge">
<title>showClueCategoryAndDollars&#45;&gt;showClueQuestion</title>
<path fill="none" stroke="black" d="M163,-608.8C163,-597.16 163,-581.55 163,-568.24"/>
<polygon fill="black" stroke="black" points="166.5,-568.18 163,-558.18 159.5,-568.18 166.5,-568.18"/>
<text text-anchor="middle" x="312" y="-579.8" font-family="Times New Roman,serif" font-size="14.00">timeout: [object Object] / handleShowClueQuestion()</text>
</g>
<!-- showClueQuestion&#45;&gt;showClueQuestion -->
<g id="showClueQuestion_to_showClueQuestion" class="edge">
<title>showClueQuestion&#45;&gt;showClueQuestion</title>
<path fill="none" stroke="black" d="M246.62,-546.9C257.39,-545.7 264.5,-543.4 264.5,-540 264.5,-537.82 261.58,-536.09 256.65,-534.82"/>
<polygon fill="black" stroke="black" points="257.07,-531.34 246.62,-533.1 255.89,-538.24 257.07,-531.34"/>
<text text-anchor="middle" x="382.5" y="-536.3" font-family="Times New Roman,serif" font-size="14.00">keyboard: &quot;123456789&quot; / handleLockout()</text>
</g>
<!-- waitForBuzzes -->
<g id="waitForBuzzes" class="node">
<title>waitForBuzzes</title>
<polygon fill="none" stroke="black" points="234,-471 92,-471 92,-435 234,-435 234,-471"/>
<text text-anchor="start" x="100" y="-450.3" font-family="monospace" font-size="14.00"> </text>
<text text-anchor="start" x="109" y="-450.3" font-family="monospace" font-weight="bold" font-size="14.00">waitForBuzzes</text>
<text text-anchor="start" x="217" y="-450.3" font-family="monospace" font-size="14.00"> </text>
</g>
<!-- showClueQuestion&#45;&gt;waitForBuzzes -->
<g id="showClueQuestion_to_waitForBuzzes" class="edge">
<title>showClueQuestion&#45;&gt;waitForBuzzes</title>
<path fill="none" stroke="black" d="M163,-521.8C163,-510.16 163,-494.55 163,-481.24"/>
<polygon fill="black" stroke="black" points="166.5,-481.18 163,-471.18 159.5,-481.18 166.5,-481.18"/>
<text text-anchor="middle" x="313" y="-492.8" font-family="Times New Roman,serif" font-size="14.00">keyboard: space / handleDoneReadingClueQuestion()</text>
</g>
<!-- waitForTeamAnswer -->
<g id="waitForTeamAnswer" class="node">
<title>waitForTeamAnswer</title>
<polygon fill="none" stroke="black" points="561,-384 305,-384 305,-348 561,-348 561,-384"/>
<text text-anchor="start" x="358" y="-369.8" font-family="monospace" font-size="14.00"> </text>
<text text-anchor="start" x="367" y="-369.8" font-family="monospace" font-weight="bold" font-size="14.00">waitForTeamAnswer</text>
<text text-anchor="start" x="313" y="-355.8" font-family="monospace" font-size="14.00">onEnter: handleBuzzerPress() </text>
</g>
<!-- waitForBuzzes&#45;&gt;waitForTeamAnswer -->
<g id="waitForBuzzes_to_waitForTeamAnswer" class="edge">
<title>waitForBuzzes&#45;&gt;waitForTeamAnswer</title>
<path fill="none" stroke="black" d="M158.17,-434.66C156.33,-423.96 156.24,-410.66 164,-402 165.23,-400.63 229.47,-392.24 294.86,-384.02"/>
<polygon fill="black" stroke="black" points="295.45,-387.48 304.93,-382.76 294.57,-380.53 295.45,-387.48"/>
<text text-anchor="middle" x="417" y="-405.8" font-family="Times New Roman,serif" font-size="14.00">keyboard: &quot;123456789&quot; [canTeamBuzz] &#160;/ saveCountdownTimerForWaitForBuzzesState()</text>
</g>
<!-- showAnswer -->
<g id="showAnswer" class="node">
<title>showAnswer</title>
<polygon fill="none" stroke="black" points="560,-210 312,-210 312,-174 560,-174 560,-210"/>
<text text-anchor="start" x="390" y="-195.8" font-family="monospace" font-size="14.00"> </text>
<text text-anchor="start" x="399" y="-195.8" font-family="monospace" font-weight="bold" font-size="14.00">showAnswer</text>
<text text-anchor="start" x="320" y="-181.8" font-family="monospace" font-size="14.00">onEnter: handleShowAnswer() </text>
</g>
<!-- waitForBuzzes&#45;&gt;showAnswer -->
<g id="waitForBuzzes_to_showAnswer" class="edge">
<title>waitForBuzzes&#45;&gt;showAnswer</title>
<path fill="none" stroke="black" d="M234.21,-452.34C366.83,-452.22 640.92,-448.16 670,-417 673.49,-413.26 688.82,-299.18 658,-261 636.05,-233.81 603.5,-217.24 570.06,-207.21"/>
<polygon fill="black" stroke="black" points="570.71,-203.76 560.14,-204.43 568.82,-210.5 570.71,-203.76"/>
<text text-anchor="middle" x="867" y="-318.8" font-family="Times New Roman,serif" font-size="14.00">timeout: function () { [native code] } / playSoundQuestionTimeout()</text>
</g>
<!-- waitForTeamAnswer&#45;&gt;showAnswer -->
<g id="waitForTeamAnswer_to_showAnswer" class="edge">
<title>waitForTeamAnswer&#45;&gt;showAnswer</title>
<path fill="none" stroke="black" d="M433.3,-347.88C433.82,-318 434.9,-256.11 435.52,-220.27"/>
<polygon fill="black" stroke="black" points="439.03,-220.11 435.7,-210.05 432.03,-219.99 439.03,-220.11"/>
<text text-anchor="middle" x="544" y="-275.3" font-family="Times New Roman,serif" font-size="14.00">keyboard: &quot;y&quot; / handleAnswerCorrect()</text>
</g>
<!-- answerWrongOrTimeout -->
<g id="answerWrongOrTimeout" class="node">
<title>answerWrongOrTimeout</title>
<polygon fill="none" stroke="black" points="377,-297 47,-297 47,-261 377,-261 377,-297"/>
<text text-anchor="start" x="124.5" y="-282.8" font-family="monospace" font-size="14.00"> </text>
<text text-anchor="start" x="133.5" y="-282.8" font-family="monospace" font-weight="bold" font-size="14.00">answerWrongOrTimeout</text>
<text text-anchor="start" x="55" y="-268.8" font-family="monospace" font-size="14.00">onEnter: handleAnswerWrongOrTimeout() </text>
</g>
<!-- waitForTeamAnswer&#45;&gt;answerWrongOrTimeout -->
<g id="waitForTeamAnswer_to_answerWrongOrTimeout" class="edge">
<title>waitForTeamAnswer&#45;&gt;answerWrongOrTimeout</title>
<path fill="none" stroke="black" d="M304.91,-348.55C246.28,-340.72 189.18,-332.51 187,-330 180.7,-322.74 183.01,-313.62 188.22,-305.16"/>
<polygon fill="black" stroke="black" points="191.1,-307.16 194.18,-297.02 185.45,-303.02 191.1,-307.16"/>
<text text-anchor="middle" x="226.5" y="-318.8" font-family="Times New Roman,serif" font-size="14.00">keyboard: &quot;n&quot;</text>
</g>
<!-- waitForTeamAnswer&#45;&gt;answerWrongOrTimeout -->
<g id="waitForTeamAnswer_to_answerWrongOrTimeout" class="edge">
<title>waitForTeamAnswer&#45;&gt;answerWrongOrTimeout</title>
<path fill="none" stroke="black" d="M342.35,-347.94C324.31,-343.17 305.77,-337.25 289,-330 277.8,-325.16 276.23,-321.65 266,-315 259.82,-310.98 253.23,-306.71 246.87,-302.58"/>
<polygon fill="black" stroke="black" points="248.67,-299.58 238.38,-297.07 244.86,-305.45 248.67,-299.58"/>
<text text-anchor="middle" x="355.5" y="-318.8" font-family="Times New Roman,serif" font-size="14.00">timeout: [object Object]</text>
</g>
<!-- checkGameEnd -->
<g id="checkGameEnd" class="node">
<title>checkGameEnd</title>
<polygon fill="none" stroke="black" points="503,-123 369,-123 369,-87 503,-87 503,-123"/>
<text text-anchor="start" x="377" y="-102.3" font-family="monospace" font-size="14.00"> </text>
<text text-anchor="start" x="386" y="-102.3" font-family="monospace" font-weight="bold" font-size="14.00">checkGameEnd</text>
<text text-anchor="start" x="486" y="-102.3" font-family="monospace" font-size="14.00"> </text>
</g>
<!-- showAnswer&#45;&gt;checkGameEnd -->
<g id="showAnswer_to_checkGameEnd" class="edge">
<title>showAnswer&#45;&gt;checkGameEnd</title>
<path fill="none" stroke="black" d="M436,-173.8C436,-162.16 436,-146.55 436,-133.24"/>
<polygon fill="black" stroke="black" points="439.5,-133.18 436,-123.18 432.5,-133.18 439.5,-133.18"/>
<text text-anchor="middle" x="502.5" y="-144.8" font-family="Times New Roman,serif" font-size="14.00">timeout: [object Object]</text>
</g>
<!-- answerWrongOrTimeout&#45;&gt;waitForBuzzes -->
<g id="answerWrongOrTimeout_to_waitForBuzzes" class="edge">
<title>answerWrongOrTimeout&#45;&gt;waitForBuzzes</title>
<path fill="none" stroke="black" d="M184.37,-297.11C167.83,-309.08 148.26,-326.72 139,-348 128.04,-373.2 137.83,-404.1 148.01,-425.64"/>
<polygon fill="black" stroke="black" points="145.01,-427.47 152.64,-434.83 151.26,-424.32 145.01,-427.47"/>
<text text-anchor="middle" x="217.5" y="-362.3" font-family="Times New Roman,serif" font-size="14.00">if(!haveAllTeamsAnswered)</text>
</g>
<!-- answerWrongOrTimeout&#45;&gt;showAnswer -->
<g id="answerWrongOrTimeout_to_showAnswer" class="edge">
<title>answerWrongOrTimeout&#45;&gt;showAnswer</title>
<path fill="none" stroke="black" d="M227.6,-260.63C238.44,-249.63 253.8,-236.02 270,-228 282.11,-222.01 295.2,-217.04 308.55,-212.92"/>
<polygon fill="black" stroke="black" points="309.68,-216.23 318.3,-210.07 307.72,-209.51 309.68,-216.23"/>
<text text-anchor="middle" x="346" y="-231.8" font-family="Times New Roman,serif" font-size="14.00">if(haveAllTeamsAnswered)</text>
</g>
<!-- checkGameEnd&#45;&gt;getClueFromJService -->
<g id="checkGameEnd_to_getClueFromJService" class="edge">
<title>checkGameEnd&#45;&gt;getClueFromJService</title>
<path fill="none" stroke="black" d="M368.83,-105.39C246.53,-106.11 0,-116.77 0,-191 0,-628 0,-628 0,-628 0,-660.82 26.31,-680.99 57.79,-693.38"/>
<polygon fill="black" stroke="black" points="56.65,-696.69 67.24,-696.82 59.04,-690.11 56.65,-696.69"/>
<text text-anchor="middle" x="57.5" y="-405.8" font-family="Times New Roman,serif" font-size="14.00">if(!shouldGameEnd)</text>
</g>
<!-- gameEnd -->
<g id="gameEnd" class="node">
<title>gameEnd</title>
<polygon fill="none" stroke="black" points="869.5,-36 646.5,-36 646.5,0 869.5,0 869.5,-36"/>
<text text-anchor="start" x="724.5" y="-21.8" font-family="monospace" font-size="14.00"> </text>
<text text-anchor="start" x="733.5" y="-21.8" font-family="monospace" font-weight="bold" font-size="14.00">gameEnd</text>
<text text-anchor="start" x="654.5" y="-7.8" font-family="monospace" font-size="14.00">onEnter: handleGameEnd() </text>
</g>
<!-- checkGameEnd&#45;&gt;gameEnd -->
<g id="checkGameEnd_to_gameEnd" class="edge">
<title>checkGameEnd&#45;&gt;gameEnd</title>
<path fill="none" stroke="black" d="M500.77,-86.9C553.62,-72.95 628.3,-53.24 683.59,-38.64"/>
<polygon fill="black" stroke="black" points="684.55,-42.01 693.33,-36.07 682.77,-35.24 684.55,-42.01"/>
<text text-anchor="middle" x="671" y="-57.8" font-family="Times New Roman,serif" font-size="14.00">if(shouldGameEnd)</text>
</g>
<!-- gameEnd&#45;&gt;idle -->
<g id="gameEnd_to_idle" class="edge">
<title>gameEnd&#45;&gt;idle</title>
<path fill="none" stroke="black" d="M869.61,-27.32C962.97,-37.45 1081,-59.13 1081,-104 1081,-715 1081,-715 1081,-715 1081,-756.9 781.49,-786.57 666.35,-796.43"/>
<polygon fill="black" stroke="black" points="665.79,-792.96 656.12,-797.3 666.38,-799.94 665.79,-792.96"/>
<text text-anchor="middle" x="1143.5" y="-405.8" font-family="Times New Roman,serif" font-size="14.00">manualTrigger: &quot;reset&quot;</text>
</g>
</g>
</svg>
