<svg width="800" height="800" viewBox="0 -16 544 544" xmlns="http://www.w3.org/2000/svg"><path d="m57.5-.3 470.8 470.8-41.8 41.8-96.8-96.8Q336 444.3 272 444.3q-83.7 0-154.3-51Q45.7 342.3 0 256q19.6-35.3 49.7-70.6 28.8-36.6 55-55l-89-88.9Zm340 256.3q0-52.3-36.6-89-36.6-36.5-88.9-36.5l-56.2-56.3q32.7-6.5 56.2-6.5 85 0 157 52.3 70.5 52.3 115 136-7.8 17-24.8 41.8-17 24.9-35.4 44.5zM272 381.5q35.3 0 65.4-18.3l-38-37.9q-13 4-27.4 4-30 0-51-21-22.2-22.2-22.2-52.3 0-11.8 5.2-26.2l-39.2-39.2q-18.3 30-18.3 65.4 0 52.3 36.6 89 36.6 36.5 88.9 36.5z" style="fill:#fff;fill-opacity:1;stroke-width:1;stroke:none"/></svg>