<svg width="180" height="180" style="width:180px;height:180px" class="ct-chart-donut" xmlns="http://www.w3.org/2000/svg"><g stroke-width="38.795" fill="none" stroke-linejoin="round" stroke-dashoffset="8.693" paint-order="stroke fill markers"><path d="M82.016 43.07a57.59 57.59 0 0 1 52.195 33.252 57.59 57.59 0 0 1-8.078 61.356 57.59 57.59 0 0 1-59.022 18.61" stroke="#80808f" transform="matrix(1.16908 0 0 1.16907 -5.885 -27.675)"/><path d="M32.142 71.865A57.59 57.59 0 0 1 82.016 43.07" stroke="#d40000" transform="matrix(1.16908 0 0 1.16907 -5.885 -27.675)"/><path d="M67.111 156.288a57.59 57.59 0 0 1-38.3-33.59 57.59 57.59 0 0 1 3.331-50.833" stroke="green" transform="matrix(1.16908 0 0 1.16907 -5.885 -27.675)"/></g></svg>