<svg xmlns="http://www.w3.org/2000/svg" width="1000" height="330" font-family="sans-serif"><path fill="#fff" d="M0 0h1000v330H0z" font-size="20"/><g font-size="20" transform="translate(20 280)"><text x="10" y="20" font-size="14">Buzzer press</text><circle cx="16.5" cy="27.5" r="5"/><text x="240" y="20" font-size="14">Too early (lockout)</text><path fill="orange" stroke="#000" d="M244 25h100v10H244z"/><text x="480" y="20" font-size="14">Answered wrong or timed out</text><path fill="red" stroke="#000" d="M481 25h100v10H481z"/><text x="720" y="20" font-size="14">Answered right</text><path fill="green" stroke="#000" d="M721 25h100v10H721z"/></g><g font-size="20" transform="translate(20 20)"><g><path fill="#EEE" d="M0 0h960v50H0z"/><path stroke="#000" d="M0 50h960"/><path fill="orange" stroke="#000" d="M122.2 20h127.7v10H122.2z"/><circle cx="122.2" cy="25" r="5"/><circle cx="168.1" cy="25" r="5"/><text x="10" y="25" dominant-baseline="middle">Team 1</text></g><g transform="translate(0 50)"><path fill="#FFF" d="M0 0h960v50H0z"/><path stroke="#000" d="M0 50h960"/><path fill="red" stroke="#000" d="M198.8 20h413.8v10H198.8z"/><circle cx="198.8" cy="25" r="5"/><text x="10" y="25" dominant-baseline="middle">Team 2</text></g><g transform="translate(0 100)"><path fill="#EEE" d="M0 0h960v50H0z"/><path stroke="#000" d="M0 50h960"/><circle cx="214.1" cy="25" r="5"/><text x="10" y="25" dominant-baseline="middle">Team 3</text></g><g transform="translate(0 150)"><path fill="#FFF" d="M0 0h960v50H0z"/><path stroke="#000" d="M0 50h960"/><path fill="green" stroke="#000" d="M689.2 20H868v10H689.2z"/><circle cx="689.2" cy="25" r="5"/><text x="10" y="25" dominant-baseline="middle">Team 4</text></g><path stroke="#000" d="M152.8 0v200"/></g><g fill="none" font-size="10" text-anchor="middle" transform="translate(20 220)"><g transform="translate(152.8)"><path stroke="black" d="M0 0v6"/><text y="9" fill="black" dy=".7em" font-size="20">0ms</text></g><g transform="translate(408.2)"><path stroke="black" d="M0 0v6"/><text y="9" fill="black" dy=".7em" font-size="20">500ms</text></g><g transform="translate(663.6)"><path stroke="black" d="M0 0v6"/><text y="9" fill="black" dy=".7em" font-size="20">1000ms</text></g><g transform="translate(919)"><path stroke="black" d="M0 0v6"/><text y="9" fill="black" dy=".7em" font-size="20">1500ms</text></g></g></svg>