<svg xmlns="http://www.w3.org/2000/svg" width="1000" height="330" font-family="sans-serif"><path fill="#fff" d="M0 0h1000v330H0z" font-size="20"/><g font-size="20" transform="translate(20 280)"><text x="10" y="20" font-size="14">Buzzer press</text><circle cx="16.5" cy="27.5" r="5"/><text x="240" y="20" font-size="14">Too early (lockout)</text><path fill="orange" stroke="#000" d="M244 25h100v10H244z"/><text x="480" y="20" font-size="14">Answered wrong or timed out</text><path fill="red" stroke="#000" d="M481 25h100v10H481z"/><text x="720" y="20" font-size="14">Answered right</text><path fill="green" stroke="#000" d="M721 25h100v10H721z"/></g><g font-size="20" transform="translate(20 20)"><g><path fill="#EEE" d="M0 0h960v50H0z"/><path stroke="#000" d="M0 50h960"/><path fill="orange" stroke="#000" d="M169.2 20h894.3v10H169.2z"/><circle cx="169.2" cy="25" r="5"/><circle cx="491.1" cy="25" r="5"/><path fill="none" stroke="#000" stroke-linecap="round" d="m174.2 32-5 5 5 5m-5-10v10m0-5h214.6m-5-5 5 5-5 5m5-10v10"/><text x="176.2" y="38" dominant-baseline="hanging" font-size="12">60 millisec too early</text><text x="10" y="25" dominant-baseline="middle">Team 1</text></g><g transform="translate(0 50)"><path fill="#FFF" d="M0 0h960v50H0z"/><path stroke="#000" d="M0 50h960"/><path fill="red" stroke="#000" d="M705.8 20h2897.7v10H705.8z"/><circle cx="705.8" cy="25" r="5"/><text x="10" y="25" dominant-baseline="middle">Team 2</text></g><g transform="translate(0 100)"><path fill="#EEE" d="M0 0h960v50H0z"/><path stroke="#000" d="M0 50h960"/><circle cx="813.1" cy="25" r="5"/><path fill="none" stroke="#000" stroke-linecap="round" d="m710.8 32-5 5 5 5m-5-10v10m0-5H813m-5-5 5 5-5 5m5-10v10"/><text x="712.8" y="38" dominant-baseline="hanging" font-size="12">30 millisec too late</text><text x="10" y="25" dominant-baseline="middle">Team 3</text></g><g transform="translate(0 150)"><path fill="#FFF" d="M0 0h960v50H0z"/><path stroke="#000" d="M0 50h960"/><path fill="green" stroke="#000" d="M4140 20h1252.1v10H4140z"/><circle cx="4140" cy="25" r="5"/><text x="10" y="25" dominant-baseline="middle">Team 4</text></g><path stroke="#000" d="M383.8 0v200"/></g><g fill="none" font-size="10" text-anchor="middle" transform="translate(20 220)"><g transform="translate(26)"><path stroke="black" d="M0 0v6"/><text y="9" fill="black" dy=".7em" font-size="20">-100ms</text></g><g transform="translate(205)"><path stroke="black" d="M0 0v6"/><text y="9" fill="black" dy=".7em" font-size="20">-50ms</text></g><g transform="translate(383.8)"><path stroke="black" d="M0 0v6"/><text y="9" fill="black" dy=".7em" font-size="20">0ms</text></g><g transform="translate(562.7)"><path stroke="black" d="M0 0v6"/><text y="9" fill="black" dy=".7em" font-size="20">50ms</text></g><g transform="translate(741.5)"><path stroke="black" d="M0 0v6"/><text y="9" fill="black" dy=".7em" font-size="20">100ms</text></g><g transform="translate(920.4)"><path stroke="black" d="M0 0v6"/><text y="9" fill="black" dy=".7em" font-size="20">150ms</text></g></g></svg>