<svg width="1030" height="520" xmlns="http://www.w3.org/2000/svg" font-family="sans-serif"><path fill="#fff" d="M0 0h1030v520H0z"/><g transform="translate(30)" font-size="20"><path d="M50 465h735M50 438.5h735M50 412.1h735M50 385.6h735M50 359.1h735M50 332.6h735M50 306.2h735M50 279.7h735M50 253.2h735M50 226.8h735M50 200.3h735M50 173.8h735M50 147.4h735M50 120.9h735M50 94.4h735M50 67.9h735M50 41.5h735M50 15h735" stroke="#AAA" stroke-dasharray="3"/><g stroke="#B22222"><path d="M50 465h12.7l12.6-53h126.8l12.6-52.9 12.7-53h12.7l12.7-10.5h38l12.6-21.2 12.7 26.5h76.1l12.6-10.6h12.7l12.7-84.7h114l12.7-42.4h25.3l12.7 53h63.4l12.6-63.6h25.4l12.7-21.1h63.3" fill="none" stroke-width="4"/><path stroke-width="10" stroke-linecap="round" d="M50 465h0m12.7 0h0m12.6-52.9h.1m12.6 0h0m12.7 0h0m12.7 0h0m12.6 0h0m12.7 0h0m12.7 0h0m12.7 0h0m12.6 0h0m12.7 0h0m12.7 0h0m12.6-53h.1m12.6-52.9h0m12.7 0h0m12.7-10.6h0m12.6 0h0m12.7 0h0m12.7 0h0m12.6-21.2h.1m12.6 26.5h0m12.7 0h0m12.7 0h0m12.6 0h0m12.7 0h0m12.7 0h0m12.7 0h0m12.6-10.6h0m12.7 0h0m12.7-84.7h0m12.6 0h.1m12.6 0h0m12.7 0h0m12.7 0h0m12.6 0h0m12.7 0h0m12.7 0h0m12.7 0h0m12.6 0h0m12.7-42.4h0m12.7 0h0m12.6 0h.1m12.6 53h0m12.7 0h0m12.7 0h0m12.6 0h0m12.7 0h0m12.7 0h0m12.6-63.6h.1m12.6 0h0m12.7 0h0m12.7-21.1h0m12.6 0h0m12.7 0h0m12.7 0h0m12.7 0h0m12.6 0h0"/></g><g stroke="#FF8C00"><path d="M50 465h50.7l12.7-31.8H126l12.7-42.3h25.4l12.6-21.2 12.7-31.8 12.7-31.7h202.7l12.7-106h190.1l12.7-84.6 12.6-84.7h139.4" fill="none" stroke-width="4"/><path stroke-width="10" stroke-linecap="round" d="M50 465h0m12.7 0h0m12.6 0h.1m12.6 0h0m12.7 0h0m12.7-31.8h0m12.6 0h0m12.7-42.3h0m12.7 0h0m12.7 0h0m12.6-21.2h0m12.7-31.8h0m12.7-31.7h0m12.6 0h.1m12.6 0h0m12.7 0h0m12.7 0h0m12.6 0h0m12.7 0h0m12.7 0h0m12.6 0h.1m12.6 0h0m12.7 0h0m12.7 0h0m12.6 0h0m12.7 0h0m12.7 0h0m12.7 0h0m12.6 0h0m12.7-105.9h0m12.7 0h0m12.6 0h.1m12.6 0h0m12.7 0h0m12.7 0h0m12.6 0h0m12.7 0h0m12.7 0h0m12.7 0h0m12.6 0h0m12.7 0h0m12.7 0h0m12.6 0h.1m12.6 0h0m12.7 0h0m12.7-84.7h0m12.6-84.7h0m12.7 0h0m12.7 0h0m12.6 0h.1m12.6 0h0m12.7 0h0m12.7 0h0m12.6 0h0m12.7 0h0m12.7 0h0m12.7 0h0m12.6 0h0"/></g><g stroke="gold"><path d="m50 465 12.7-42.4h12.6L88 369.7h25.4l12.6-21.2h25.4l12.7-21.1h63.3l12.7-10.6h63.3l12.7 26.4h126.7l12.7 31.8h38l12.7-42.4h25.4l12.6-42.3H557l12.7-63.5h76l12.7-21.2h63.2l12.7-42.4h25.4l12.6 10.6" fill="none" stroke-width="4"/><path stroke-width="10" stroke-linecap="round" d="M50 465h0m12.7-42.4h0m12.6 0h.1M88 369.7h0m12.7 0h0m12.7 0h0m12.6-21.2h0m12.7 0h0m12.7 0h0m12.7-21.1h0m12.6 0h0m12.7 0h0m12.7 0h0m12.6 0h.1m12.6 0h0m12.7-10.6h0m12.7 0h0m12.6 0h0m12.7 0h0m12.7 0h0m12.6 0h.1m12.6 26.4h0m12.7 0h0m12.7 0h0m12.6 0h0m12.7 0h0m12.7 0h0m12.7 0h0m12.6 0h0m12.7 0h0m12.7 0h0m12.6 0h.1m12.6 31.8h0m12.7 0h0m12.7 0h0m12.6 0h0m12.7-42.4h0m12.7 0h0m12.7 0h0m12.6-42.3h0m12.7 0h0m12.7-63.5h0m12.6 0h.1m12.6 0h0m12.7 0h0m12.7 0h0m12.6 0h0m12.7 0h0m12.7-21.2h0m12.6 0h.1m12.6 0h0m12.7 0h0m12.7 0h0m12.6 0h0m12.7-42.4h0m12.7 0h0m12.7 0h0m12.6 10.6h0"/></g><g stroke="green"><path d="M50 454.4h202.8l12.6-53h12.7l12.7 21.2h38l12.7-42.3 12.6-10.6h12.7l12.7-21.2 12.7-31.7h63.3l12.7-42.4 12.7-105.9 12.6-21.1H595l12.7-21.2h25.2l12.7-84.7h126.7" fill="none" stroke-width="4"/><path stroke-width="10" stroke-linecap="round" d="M50 454.4h0m12.7 0h0m12.6 0h.1m12.6 0h0m12.7 0h0m12.7 0h0m12.6 0h0m12.7 0h0m12.7 0h0m12.7 0h0m12.6 0h0m12.7 0h0m12.7 0h0m12.6 0h.1m12.6 0h0m12.7 0h0m12.7 0h0m12.6-52.9h0m12.7 0h0m12.7 21.1h0m12.6 0h.1m12.6 0h0m12.7 0h0m12.7-42.3h0m12.6-10.6h0m12.7 0h0m12.7-21.2h0m12.7-31.7h0m12.6 0h0m12.7 0h0m12.7 0h0m12.6 0h.1m12.6 0h0m12.7-42.4h0m12.7-105.9h0m12.6-21.1h0m12.7 0h0m12.7 0h0m12.7 0h0m12.6 0h0m12.7 0h0m12.7 0h0m12.6 0h.1m12.6 0h0m12.7-21.2h0m12.7 0h0m12.6 0h0m12.7-84.7h0m12.7 0h0m12.6 0h.1m12.6 0h0m12.7 0h0m12.7 0h0m12.6 0h0m12.7 0h0m12.7 0h0m12.7 0h0m12.6 0h0"/></g><g font-size="12"><g dominant-baseline="hanging"><text x="50" y="470">1</text><text x="75.3" y="470">3</text><text x="100.7" y="470">5</text><text x="126" y="470">7</text><text x="151.4" y="470">9</text><text x="176.7" y="470">11</text><text x="202.1" y="470">13</text><text x="227.4" y="470">15</text><text x="252.8" y="470">17</text><text x="278.1" y="470">19</text><text x="303.4" y="470">21</text><text x="328.8" y="470">23</text><text x="354.1" y="470">25</text><text x="379.5" y="470">27</text><text x="404.8" y="470">29</text><text x="430.2" y="470">31</text><text x="455.5" y="470">33</text><text x="480.9" y="470">35</text><text x="506.2" y="470">37</text><text x="531.6" y="470">39</text><text x="556.9" y="470">41</text><text x="582.2" y="470">43</text><text x="607.6" y="470">45</text><text x="632.9" y="470">47</text><text x="658.3" y="470">49</text><text x="683.6" y="470">51</text><text x="709" y="470">53</text><text x="734.3" y="470">55</text><text x="759.7" y="470">57</text><text x="785" y="470">59</text></g><g text-anchor="end"><text x="40" y="465">$0</text><text x="40" y="438.5">$500</text><text x="40" y="412.1">$1,000</text><text x="40" y="385.6">$1,500</text><text x="40" y="359.1">$2,000</text><text x="40" y="332.6">$2,500</text><text x="40" y="306.2">$3,000</text><text x="40" y="279.7">$3,500</text><text x="40" y="253.2">$4,000</text><text x="40" y="226.8">$4,500</text><text x="40" y="200.3">$5,000</text><text x="40" y="173.8">$5,500</text><text x="40" y="147.4">$6,000</text><text x="40" y="120.9">$6,500</text><text x="40" y="94.4">$7,000</text><text x="40" y="67.9">$7,500</text><text x="40" y="41.5">$8,000</text><text x="40" y="15">$8,500</text></g></g></g><g font-size="20" text-anchor="middle"><text x="430" y="500" dominant-baseline="hanging">Question number</text><text transform="rotate(-90 132.5 117.5)">Money</text></g><g dominant-baseline="middle" transform="translate(870 20)" font-size="20"><g stroke="#B22222"><path d="M0 0h50" fill="none" stroke-width="4"/><path stroke-width="10" stroke-linecap="round" d="M25 0h0"/></g><text x="60">Team 1</text><g transform="translate(0 50)"><g stroke="#FF8C00"><path d="M0 0h50" fill="none" stroke-width="4"/><path stroke-width="10" stroke-linecap="round" d="M25 0h0"/></g><text x="60">Team 2</text></g><g transform="translate(0 100)"><g stroke="gold"><path d="M0 0h50" fill="none" stroke-width="4"/><path stroke-width="10" stroke-linecap="round" d="M25 0h0"/></g><text x="60">Team 3</text></g><g transform="translate(0 150)"><g stroke="green"><path d="M0 0h50" fill="none" stroke-width="4"/><path stroke-width="10" stroke-linecap="round" d="M25 0h0"/></g><text x="60">Team 4</text></g></g></svg>