<svg width="840" height="315" xmlns="http://www.w3.org/2000/svg" font-family="sans-serif"><path fill="#fff" d="M0 0h840v315H0z"/><g font-size="20"><path fill="gray" d="M0 210h25v25H0z"/><text x="30" y="12.5" dominant-baseline="middle" transform="translate(0 210)">Not buzzed</text><path fill="green" d="M0 245h25v25H0z"/><text x="30" y="12.5" dominant-baseline="middle" transform="translate(0 245)">Buzzed then answered right</text><path fill="red" d="M0 280h25v25H0z"/><text x="30" y="12.5" dominant-baseline="middle" transform="translate(0 280)">Buzzed then answered wrong or timed out</text></g><g font-size="20"><path d="M20.6 70.7A72 72 0 1 0 90 18" fill="none" stroke="gray" stroke-width="36"/><path d="M74.5 19.7a72 72 0 0 0-54 51.3" fill="none" stroke="green" stroke-width="36"/><path d="M90 18a72 72 0 0 0-15.7 1.7" fill="none" stroke="red" stroke-width="36"/><g text-anchor="middle" fill="#FFF" stroke="#000" stroke-width="6" font-size="30" paint-order="stroke" dominant-baseline="central"><text dx="133.6" dy="147.3">46</text><text dx="40.5" dy="37.7">10</text><text dx="82.2" dy="18.4">2</text></g><text x="90" y="90" dominant-baseline="middle" text-anchor="middle">Team 1</text></g><g font-size="20"><path d="M245.1 43.4A72 72 0 1 0 300 18" fill="none" stroke="gray" stroke-width="36"/><path d="M292.2 18.4A72 72 0 0 0 245 43.6" fill="none" stroke="green" stroke-width="36"/><path d="M300 18a72 72 0 0 0-8 .4" fill="none" stroke="red" stroke-width="36"/><g text-anchor="middle" fill="#FFF" stroke="#000" stroke-width="6" font-size="30" paint-order="stroke" dominant-baseline="central"><text dx="120.2" dy="155.3" transform="translate(210)">50</text><text dx="56.3" dy="26.4" transform="translate(210)">7</text><text dx="86.1" dy="18.1" transform="translate(210)">1</text></g><text x="90" y="90" dominant-baseline="middle" text-anchor="middle" transform="translate(210)">Team 2</text></g><g font-size="20"><path d="M439 78.4A72 72 0 1 0 510 18" fill="none" stroke="gray" stroke-width="36"/><path d="M487 21.8a72 72 0 0 0-48 56.8" fill="none" stroke="green" stroke-width="36"/><path d="M510 18a72 72 0 0 0-23.2 3.9" fill="none" stroke="red" stroke-width="36"/><g text-anchor="middle" fill="#FFF" stroke="#000" stroke-width="6" font-size="30" paint-order="stroke" dominant-baseline="central"><text dx="136.6" dy="144.9" transform="translate(420)">45</text><text dx="35.1" dy="43.4" transform="translate(420)">10</text><text dx="78.4" dy="18.9" transform="translate(420)">3</text></g><text x="90" y="90" dominant-baseline="middle" text-anchor="middle" transform="translate(420)">Team 3</text></g><g font-size="20"><path d="M650.6 70.7A72 72 0 1 0 720 18" fill="none" stroke="gray" stroke-width="36"/><path d="M712.2 18.4A72 72 0 0 0 650.6 71" fill="none" stroke="green" stroke-width="36"/><path d="M720 18a72 72 0 0 0-8 .4" fill="none" stroke="red" stroke-width="36"/><g text-anchor="middle" fill="#FFF" stroke="#000" stroke-width="6" font-size="30" paint-order="stroke" dominant-baseline="central"><text dx="133.6" dy="147.3" transform="translate(630)">46</text><text dx="43.4" dy="35.1" transform="translate(630)">11</text><text dx="86.1" dy="18.1" transform="translate(630)">1</text></g><text x="90" y="90" dominant-baseline="middle" text-anchor="middle" transform="translate(630)">Team 4</text></g></svg>