<svg width="1864" height="1670pt" viewBox="0 0 1398 1670" xmlns="http://www.w3.org/2000/svg"><g class="graph" transform="translate(4 1666.4)"><path fill="#fff" d="M-4 4v-1670.4h1398.1V4H-4z"/><g class="node"><path fill="none" stroke="#000" d="M969.2-1662.4h-66.4v36h66.4v-36z"/><text xml:space="preserve" x="910.8" y="-1641.2" font-family="monospace" font-size="14"> </text><text xml:space="preserve" x="919.2" y="-1641.2" font-family="monospace" font-weight="bold" font-size="14">idle</text><text xml:space="preserve" x="952.8" y="-1641.2" font-family="monospace" font-size="14"> </text></g><g class="node"><path fill="none" stroke="#000" d="M755.02-1573.6H486.98v36h268.04v-36z"/><text xml:space="preserve" x="541.19" y="-1558" font-family="monospace" font-size="14"> </text><text xml:space="preserve" x="549.59" y="-1558" font-family="monospace" font-weight="bold" font-size="14">startNextGameRound</text><text xml:space="preserve" x="494.98" y="-1544" font-family="monospace" font-size="14">onEnter: gameRoundStartNext() </text></g><g class="edge"><path fill="none" stroke="#000" d="m902.59-1634.19-207.45 57.16"/><path stroke="#000" d="m696.47-1573.77-10.57-.71 8.71-6.04 1.86 6.75z"/><text xml:space="preserve" text-anchor="middle" x="893.38" y="-1595.8" font-family="Arial" font-size="14">manualTrigger: &quot;startGame&quot;</text></g><g class="node"><path fill="none" stroke="#000" d="M721.42-1484.8H520.58v36h200.84v-36z"/><text xml:space="preserve" x="528.58" y="-1463.6" font-family="monospace" font-size="14"> </text><text xml:space="preserve" x="536.99" y="-1463.6" font-family="monospace" font-weight="bold" font-size="14">showCategoryCarousel</text><text xml:space="preserve" x="705.01" y="-1463.6" font-family="monospace" font-size="14"> </text></g><g class="edge"><path fill="none" stroke="#000" d="M621-1537.45v41.03"/><path stroke="#000" d="m624.5-1496.72-3.5 10-3.5-10h7z"/><text xml:space="preserve" text-anchor="middle" x="752.51" y="-1507" font-family="Arial" font-size="14">keyboard: space / categoryCarouselStart()</text></g><g class="edge"><path fill="none" stroke="#000" d="M721.64-1473.75c10.82 1.34 17.78 3.65 17.78 6.95 0 1.96-2.46 3.57-6.71 4.84"/><path stroke="#000" d="m733.61-1458.57-10.48-1.56 9.16-5.32 1.32 6.88z"/><text xml:space="preserve" text-anchor="middle" x="981.41" y="-1462.6" font-family="Arial" font-size="14">keyboard: space if(categoryCarouselHasMore) / categoryCarouselShowNext()</text></g><g class="node"><path fill="none" stroke="#000" d="M941.02-1396H630.98v50h310.04v-50z"/><text xml:space="preserve" x="659.98" y="-1380.4" font-family="monospace" font-size="14"> </text><text xml:space="preserve" x="668.38" y="-1380.4" font-family="monospace" font-weight="bold" font-size="14">showMessageForSpecialCategory</text><text xml:space="preserve" x="638.98" y="-1366.4" font-family="monospace" font-size="14">onEnter: specialCategoryPopupShow()</text><text xml:space="preserve" x="638.98" y="-1352.4" font-family="monospace" font-size="14">onExit: specialCategoryPopupHide() </text></g><g class="edge"><path fill="none" stroke="#000" d="M721.75-1460.74c45.07 4.58 91.21 13.31 105.25 29.94 6.73 7.97 4.66 17.03-1.18 25.61"/><path stroke="#000" d="m828.63-1403.1-9.08 5.45 3.7-9.93 5.38 4.48z"/><text xml:space="preserve" text-anchor="middle" x="991.8" y="-1418.2" font-family="Arial" font-size="14">keyboard: &quot;y&quot; [categoryCarouselIsSpecialCategory] </text></g><g class="node"><path fill="none" stroke="#000" d="M515.82-1396H298.18v50h217.64v-50z"/><text xml:space="preserve" x="348.19" y="-1380.4" font-family="monospace" font-size="14"> </text><text xml:space="preserve" x="356.59" y="-1380.4" font-family="monospace" font-weight="bold" font-size="14">showGameBoard</text><text xml:space="preserve" x="306.18" y="-1366.4" font-family="monospace" font-size="14">onEnter: gameBoardShow()</text><text xml:space="preserve" x="306.18" y="-1352.4" font-family="monospace" font-size="14">onExit: gameBoardHide() </text></g><g class="edge"><path fill="none" stroke="#000" d="M520.35-1463.32c-105.3 3.66-257.88 12.4-276.22 32.52-22.3 24.47 4.74 38.77 42.79 47.12"/><path stroke="#000" d="m287.31-1387.17 9.11 5.39-10.49 1.47 1.38-6.86z"/><text xml:space="preserve" text-anchor="middle" x="470.57" y="-1418.2" font-family="Arial" font-size="14">keyboard: space if(!categoryCarouselHasMore) / categoryCarouselStop()</text></g><g class="edge"><path fill="none" stroke="#000" d="M745.73-1396.39a471.77 471.77 0 0 1-25.46-17.61c-9.09-6.81-9.67-10.72-19.27-16.8a235.22 235.22 0 0 0-23.08-12.68"/><path stroke="#000" d="m676.47-1440.29-7.6-7.38 10.55 1.03-2.95 6.35z"/><text xml:space="preserve" text-anchor="middle" x="771.63" y="-1418.2" font-family="Arial" font-size="14">keyboard: space</text></g><g class="node"><path fill="none" stroke="#000" d="M584.63-1293.2H249.37v36h335.26v-36z"/><text xml:space="preserve" x="311.98" y="-1277.6" font-family="monospace" font-size="14"> </text><text xml:space="preserve" x="320.38" y="-1277.6" font-family="monospace" font-weight="bold" font-size="14">showClueCategoryAndValue</text><text xml:space="preserve" x="257.37" y="-1263.6" font-family="monospace" font-size="14">onEnter: onShowClueCategoryAndValue() </text></g><g class="edge"><path fill="none" stroke="#000" d="M516.12-1361.83c46.95 6 94.4 16.29 108.88 33.83 4.75 5.76 4.82 11.1 0 16.8-5.51 6.52-15.91 11.82-29.24 16.14"/><path stroke="#000" d="m597.06-1291.8-10.58-.57 8.63-6.15 1.95 6.72z"/><text xml:space="preserve" text-anchor="middle" x="730.83" y="-1315.4" font-family="Arial" font-size="14">manualTrigger: &quot;userChoseClue&quot;</text></g><g class="edge"><path fill="none" stroke="#000" d="M298.01-1351.64c-23.74 8.85-37.93 21.75-23.28 40.44 4.21 5.36 12.89 10.02 23.98 14.02"/><path stroke="#000" d="m299.65-1300.56 8.43 6.41-10.59.25 2.16-6.66z"/><text xml:space="preserve" text-anchor="middle" x="447.87" y="-1315.4" font-family="Arial" font-size="14">timeout: new 10000 ms / teamTimedOutChoosingClue()</text></g><g class="node"><path fill="none" stroke="#000" d="M572.02-1204.4H261.98v36h310.04v-36z"/><text xml:space="preserve" x="345.59" y="-1188.8" font-family="monospace" font-size="14"> </text><text xml:space="preserve" x="353.99" y="-1188.8" font-family="monospace" font-weight="bold" font-size="14">showClueQuestion</text><text xml:space="preserve" x="269.98" y="-1174.8" font-family="monospace" font-size="14">onEnter: fitClueQuestionToWindow() </text></g><g class="edge"><path fill="none" stroke="#000" d="M417-1257.05v41.03"/><path stroke="#000" d="m420.5-1216.32-3.5 10-3.5-10h7z"/><text xml:space="preserve" text-anchor="middle" x="563.69" y="-1226.6" font-family="Arial" font-size="14">timeout: new 1000 ms / onShowClueQuestion()</text></g><g class="node"><path fill="none" stroke="#000" d="M488.01-1115.6H345.99v36h142.02v-36z"/><text xml:space="preserve" x="353.99" y="-1094.4" font-family="monospace" font-size="14"> </text><text xml:space="preserve" x="362.39" y="-1094.4" font-family="monospace" font-weight="bold" font-size="14">waitForBuzzes</text><text xml:space="preserve" x="471.61" y="-1094.4" font-family="monospace" font-size="14"> </text></g><g class="edge"><path fill="none" stroke="#000" d="M417-1168.25v41.03"/><path stroke="#000" d="m420.5-1127.52-3.5 10-3.5-10h7z"/><text xml:space="preserve" text-anchor="middle" x="571.87" y="-1137.8" font-family="Arial" font-size="14">keyboard: space / onDoneReadingClueQuestion()</text></g><g class="node"><path fill="none" stroke="#000" d="M596.42-1026.8H353.58v36h242.84v-36z"/><text xml:space="preserve" x="399.39" y="-1011.2" font-family="monospace" font-size="14"> </text><text xml:space="preserve" x="407.79" y="-1011.2" font-family="monospace" font-weight="bold" font-size="14">waitForTeamAnswer</text><text xml:space="preserve" x="361.58" y="-997.2" font-family="monospace" font-size="14">onEnter: teamAnswerStart() </text></g><g class="edge"><path fill="none" stroke="#000" d="M413.22-1079.17c-1.36 10.61-1.34 24.06 4.54 34.37a48.62 48.62 0 0 0 8.25 10.52"/><path stroke="#000" d="m427.99-1037.18 5.5 9.05-9.95-3.65 4.45-5.4z"/><text xml:space="preserve" text-anchor="middle" x="559.38" y="-1049" font-family="Arial" font-size="14">keyboard: (() =&gt; Set&lt;string&gt;) [teamCanBuzz] </text></g><g class="node"><path fill="none" stroke="#000" d="M584.82-849.2H367.18v36h217.64v-36z"/><text xml:space="preserve" x="429.79" y="-833.6" font-family="monospace" font-size="14"> </text><text xml:space="preserve" x="438.19" y="-833.6" font-family="monospace" font-weight="bold" font-size="14">showAnswer</text><text xml:space="preserve" x="375.18" y="-819.6" font-family="monospace" font-size="14">onEnter: onShowAnswer() </text></g><g class="edge"><path fill="none" stroke="#000" d="M488.29-1092.67c79.49 5.13 198.81 15.35 212.71 31.07 3.36 3.81 16.94 125.13-10 159.6-23.11 29.56-58.94 46.78-94.78 56.75"/><path stroke="#000" d="m597.14-841.87-10.56-.89 8.81-5.89 1.75 6.78z"/><text xml:space="preserve" text-anchor="middle" x="886.11" y="-960.2" font-family="Arial" font-size="14">timeout: continue 5000 ms / playSoundQuestionTimeout()</text></g><g class="edge"><path fill="none" stroke="#000" d="m475.1-990.32.74 129.32"/><path stroke="#000" d="m479.34-861.14-3.45 10.02-3.55-9.98 7-.04z"/><text xml:space="preserve" text-anchor="middle" x="581.33" y="-915.8" font-family="Arial" font-size="14">keyboard: &quot;y&quot; / onAnswerCorrect()</text></g><g class="node"><path fill="none" stroke="#000" d="M392.82-938H91.18v36h301.64v-36z"/><text xml:space="preserve" x="153.79" y="-922.4" font-family="monospace" font-size="14"> </text><text xml:space="preserve" x="162.19" y="-922.4" font-family="monospace" font-weight="bold" font-size="14">answerWrongOrTimeout</text><text xml:space="preserve" x="99.18" y="-908.4" font-family="monospace" font-size="14">onEnter: onAnswerWrongOrTimeout() </text></g><g class="edge"><path fill="none" stroke="#000" d="M418.7-990.32c-13.37 4.97-27.35 10.86-39.8 17.52-11.13 5.95-11.62 11.13-22.9 16.8a292.43 292.43 0 0 1-33 13.84"/><path stroke="#000" d="m324.2-938.87-10.6-.11 8.35-6.52 2.25 6.63z"/><text xml:space="preserve" text-anchor="middle" x="420.45" y="-960.2" font-family="Arial" font-size="14">keyboard: &quot;n&quot;</text></g><g class="edge"><path fill="none" stroke="#000" d="M353.12-992.26c-66.98 8.68-136.83 18.04-138.08 19.46-6.56 7.51-4.1 16.9 1.42 25.62"/><path stroke="#000" d="m219.18-949.39 3.28 10.07-8.85-5.83 5.57-4.24z"/><text xml:space="preserve" text-anchor="middle" x="283.52" y="-960.2" font-family="Arial" font-size="14">timeout: new 5000 ms</text></g><g class="node"><path fill="none" stroke="#000" d="M593.22-760.4H358.78v36h234.44v-36z"/><text xml:space="preserve" x="366.78" y="-739.2" font-family="monospace" font-size="14"> </text><text xml:space="preserve" x="375.18" y="-739.2" font-family="monospace" font-weight="bold" font-size="14">maybeShowBuzzTimingChart</text><text xml:space="preserve" x="576.82" y="-739.2" font-family="monospace" font-size="14"> </text></g><g class="edge"><path fill="none" stroke="#000" d="M476-813.05v41.03"/><path stroke="#000" d="m479.5-772.32-3.5 10-3.5-10h7z"/><text xml:space="preserve" text-anchor="middle" x="527.37" y="-782.6" font-family="Arial" font-size="14">keyboard: space</text></g><g class="edge"><path fill="none" stroke="#000" d="M221.84-938.21c-5.34-5.3-10.76-11.43-14.84-17.79-17.27-26.92-31.86-45.02-12.92-70.8 31.96-43.51 90.97-60.64 140.25-67.07"/><path stroke="#000" d="m333.81-1097.33 10.34 2.33-9.53 4.62-.81-6.95z"/><text xml:space="preserve" text-anchor="middle" x="269.54" y="-1004.6" font-family="Arial" font-size="14">if(!isAllTeamsAnswered)</text></g><g class="edge"><path fill="none" stroke="#000" d="M261.72-901.65c13.96 11.42 33.63 25.79 53.25 34.45 12.93 5.71 26.87 10.52 40.94 14.56"/><path stroke="#000" d="m356.5-856.11 8.72 6.02-10.56.74 1.84-6.76z"/><text xml:space="preserve" text-anchor="middle" x="388.48" y="-871.4" font-family="Arial" font-size="14">if(isAllTeamsAnswered)</text></g><g class="node"><path fill="none" stroke="#000" d="M983.42-671.6H698.58v50h284.84v-50z"/><text xml:space="preserve" x="756.99" y="-656" font-family="monospace" font-size="14"> </text><text xml:space="preserve" x="765.39" y="-656" font-family="monospace" font-weight="bold" font-size="14">showBuzzTimingChart</text><text xml:space="preserve" x="706.58" y="-642" font-family="monospace" font-size="14">onEnter: onBuzzTimingChartShow()</text><text xml:space="preserve" x="706.58" y="-628" font-family="monospace" font-size="14">onExit: onBuzzTimingChartHide() </text></g><g class="edge"><path fill="none" stroke="#000" d="m543.8-723.98 190.96 49.08"/><path stroke="#000" d="m735.42-678.35 8.82 5.88-10.56.9 1.74-6.78z"/><text xml:space="preserve" text-anchor="middle" x="769.82" y="-693.8" font-family="Arial" font-size="14">if(buzzTimingChartShouldShow)</text></g><g class="node"><path fill="none" stroke="#000" d="M933.01-568.8H748.99v36h184.02v-36z"/><text xml:space="preserve" x="756.99" y="-547.6" font-family="monospace" font-size="14"> </text><text xml:space="preserve" x="765.39" y="-547.6" font-family="monospace" font-weight="bold" font-size="14">checkGameRoundOver</text><text xml:space="preserve" x="916.61" y="-547.6" font-family="monospace" font-size="14"> </text></g><g class="edge"><path fill="none" stroke="#000" d="M471.56-724.26c-5.53 25.72-11.45 74.3 13.8 102.66 32.84 36.88 159.09 54.77 251.87 63.1"/><path stroke="#000" d="m737.49-561.99 9.66 4.35-10.27 2.62.61-6.97z"/><text xml:space="preserve" text-anchor="middle" x="587.68" y="-642.4" font-family="Arial" font-size="14">if(!buzzTimingChartShouldShow)</text></g><g class="edge"><path fill="none" stroke="#000" d="M841-621.44v41.1"/><path stroke="#000" d="m844.5-580.58-3.5 10-3.5-10h7z"/><text xml:space="preserve" text-anchor="middle" x="892.37" y="-591" font-family="Arial" font-size="14">keyboard: space</text></g><g class="edge"><path fill="none" stroke="#000" d="M933.42-567.99c72.98-15.5 162.58-41.82 162.58-77.61v-630.6c0-53.23-421.02-64.63-474-69.8a7300.57 7300.57 0 0 1-94.46-9.95"/><path stroke="#000" d="m527.37-1352.45-9.55-4.59 10.33-2.36-.78 6.95z"/><text xml:space="preserve" text-anchor="middle" x="1166.02" y="-960.2" font-family="Arial" font-size="14">if(!isGameRoundOver)</text></g><g class="node"><path fill="none" stroke="#000" d="M933.01-480H748.99v36h184.02v-36z"/><text xml:space="preserve" x="756.99" y="-458.8" font-family="monospace" font-size="14"> </text><text xml:space="preserve" x="765.39" y="-458.8" font-family="monospace" font-weight="bold" font-size="14">nextRoundOrEndGame</text><text xml:space="preserve" x="916.61" y="-458.8" font-family="monospace" font-size="14"> </text></g><g class="edge"><path fill="none" stroke="#000" d="M841-532.65v41.03"/><path stroke="#000" d="m844.5-491.92-3.5 10-3.5-10h7z"/><text xml:space="preserve" text-anchor="middle" x="909.08" y="-502.2" font-family="Arial" font-size="14">if(isGameRoundOver)</text></g><g class="edge"><path fill="none" stroke="#000" d="M748.59-463.04C530.12-464.35 0-475.22 0-549.8v-918c0-47.75 291.69-70.82 475.25-80.61"/><path stroke="#000" d="m474.95-1551.9 10.17 2.97-9.8 4.02-.37-6.99z"/><text xml:space="preserve" text-anchor="middle" x="74.7" y="-1004.6" font-family="Arial" font-size="14">if(gameRoundHasMore)</text></g><g class="node"><path fill="none" stroke="#000" d="M1129.02-391.2H860.98v36h268.04v-36z"/><text xml:space="preserve" x="915.19" y="-375.6" font-family="monospace" font-size="14"> </text><text xml:space="preserve" x="923.59" y="-375.6" font-family="monospace" font-weight="bold" font-size="14">finalJeopardyIntro</text><text xml:space="preserve" x="868.98" y="-361.6" font-family="monospace" font-size="14">onEnter: finalJeopardyStart() </text></g><g class="edge"><path fill="none" stroke="#000" d="m871.79-443.64 82.33 46.4"/><path stroke="#000" d="m955.68-400.38 7 7.96-10.43-1.86 3.43-6.1z"/><text xml:space="preserve" text-anchor="middle" x="1008.43" y="-413.4" font-family="Arial" font-size="14">if(!gameRoundHasMore)</text></g><g class="node"><path fill="none" stroke="#000" d="M1185.43-302.4H858.57v36h326.86v-36z"/><text xml:space="preserve" x="912.78" y="-286.8" font-family="monospace" font-size="14"> </text><text xml:space="preserve" x="921.18" y="-286.8" font-family="monospace" font-weight="bold" font-size="14">finalJeopardyShowCategory</text><text xml:space="preserve" x="866.57" y="-272.8" font-family="monospace" font-size="14">onEnter: finalJeopardyShowCategory() </text></g><g class="edge"><path fill="none" stroke="#000" d="m1000.33-355.05 12.9 41.44"/><path stroke="#000" d="m1016.51-314.84-.38 10.58-6.31-8.5 6.69-2.08z"/><text xml:space="preserve" text-anchor="middle" x="1062.28" y="-324.6" font-family="Arial" font-size="14">keyboard: space</text></g><g class="node"><path fill="none" stroke="#000" d="M1204.43-213.6H877.57v36h326.86v-36z"/><text xml:space="preserve" x="931.78" y="-198" font-family="monospace" font-size="14"> </text><text xml:space="preserve" x="940.18" y="-198" font-family="monospace" font-weight="bold" font-size="14">finalJeopardyShowQuestion</text><text xml:space="preserve" x="885.57" y="-184" font-family="monospace" font-size="14">onEnter: finalJeopardyShowQuestion() </text></g><g class="edge"><path fill="none" stroke="#000" d="m1025.75-266.25 8.99 41.03"/><path stroke="#000" d="m1038.15-226.01-1.28 10.52-5.56-9.02 6.84-1.5z"/><text xml:space="preserve" text-anchor="middle" x="1084.57" y="-235.8" font-family="Arial" font-size="14">keyboard: space</text></g><g class="node"><path fill="none" stroke="#000" d="M1222.03-124.8H869.97v36h352.06v-36z"/><text xml:space="preserve" x="924.18" y="-109.2" font-family="monospace" font-size="14"> </text><text xml:space="preserve" x="932.58" y="-109.2" font-family="monospace" font-weight="bold" font-size="14">finalJeopardyShowWagersTable</text><text xml:space="preserve" x="877.97" y="-95.2" font-family="monospace" font-size="14">onEnter: finalJeopardyShowWagersTable() </text></g><g class="edge"><path fill="none" stroke="#000" d="m1041.99-177.45 2.36 41.03"/><path stroke="#000" d="m1047.83-136.91-2.92 10.19-4.07-9.78 6.99-.41z"/><text xml:space="preserve" text-anchor="middle" x="1095.31" y="-147" font-family="Arial" font-size="14">keyboard: space</text></g><g class="node"><path fill="none" stroke="#000" d="M1245.21-36h-192.42V0h192.42v-36z"/><text xml:space="preserve" x="1115.39" y="-20.4" font-family="monospace" font-size="14"> </text><text xml:space="preserve" x="1123.8" y="-20.4" font-family="monospace" font-weight="bold" font-size="14">gameEnd</text><text xml:space="preserve" x="1060.79" y="-6.4" font-family="monospace" font-size="14">onEnter: onGameEnd() </text></g><g class="edge"><path fill="none" stroke="#000" d="m1066.35-88.65 53.48 45.07"/><path stroke="#000" d="m1121.79-46.51 5.39 9.12-9.9-3.76 4.51-5.36z"/><text xml:space="preserve" text-anchor="middle" x="1158.09" y="-58.2" font-family="Arial" font-size="14">keyboard: space</text></g><g class="edge"><path fill="none" stroke="#000" d="M1193.15-36.41C1220.71-50.5 1251-73.36 1251-105.8v-1450.8c0-55.39-183.28-76.78-270.24-83.81"/><path stroke="#000" d="m980.62-1636.91-9.7-4.27 10.24-2.71-.54 6.98z"/><text xml:space="preserve" text-anchor="middle" x="1320.55" y="-827" font-family="Arial" font-size="14">manualTrigger: &quot;reset&quot;</text></g></g></svg>