<svg width="1864" height="1315pt" viewBox="0 0 1398.1 1315.2" xmlns="http://www.w3.org/2000/svg"><g class="graph" transform="translate(4 1311.2)"><path fill="#fff" d="M-4 4v-1315.2h1398.1V4H-4z"/><g class="node"><path fill="none" stroke="#000" d="M969.2-1307.2h-66.4v36h66.4v-36z"/><text x="910.8" y="-1286" font-family="monospace,monospace" font-size="14"> </text><text x="919.2" y="-1286" font-family="monospace,monospace" font-weight="bold" font-size="14">idle</text><text x="952.8" y="-1286" font-family="monospace,monospace" font-size="14"> </text></g><g class="node"><path fill="none" stroke="#000" d="M755-1218.4H487v36h268v-36z"/><text x="541.2" y="-1202.8" font-family="monospace,monospace" font-size="14"> </text><text x="549.6" y="-1202.8" font-family="monospace,monospace" font-weight="bold" font-size="14">startNextGameRound</text><text x="495" y="-1188.8" font-family="monospace,monospace" font-size="14">onEnter: gameRoundStartNext() </text></g><g class="edge"><path fill="none" stroke="#000" d="M902.6-1279 695-1221.8"/><path stroke="#000" d="m696.5-1218.6-10.6-.7 8.7-6 1.9 6.7z"/><text text-anchor="middle" x="893.4" y="-1240.6" font-family="Arial" font-size="14">manualTrigger: &quot;startGame&quot;</text></g><g class="node"><path fill="none" stroke="#000" d="M721.4-1129.6H520.6v36h200.8v-36z"/><text x="528.6" y="-1108.4" font-family="monospace,monospace" font-size="14"> </text><text x="537" y="-1108.4" font-family="monospace,monospace" font-weight="bold" font-size="14">showCategoryCarousel</text><text x="705" y="-1108.4" font-family="monospace,monospace" font-size="14"> </text></g><g class="edge"><path fill="none" stroke="#000" d="M621-1182.3v41"/><path stroke="#000" d="m624.5-1141.5-3.5 10-3.5-10h7z"/><text text-anchor="middle" x="752.5" y="-1151.8" font-family="Arial" font-size="14">keyboard: space / categoryCarouselStart()</text></g><g class="edge"><path fill="none" stroke="#000" d="M721.6-1118.5c10.9 1.3 17.8 3.6 17.8 6.9 0 2-2.4 3.6-6.7 4.8"/><path stroke="#000" d="m733.6-1103.4-10.5-1.5 9.2-5.3 1.3 6.8z"/><text text-anchor="middle" x="981.4" y="-1107.4" font-family="Arial" font-size="14">keyboard: space if(categoryCarouselHasMore) / categoryCarouselShowNext()</text></g><g class="node"><path fill="none" stroke="#000" d="M950-1040.8H640v50h310v-50z"/><text x="669" y="-1025.2" font-family="monospace,monospace" font-size="14"> </text><text x="677.4" y="-1025.2" font-family="monospace,monospace" font-weight="bold" font-size="14">showMessageForSpecialCategory</text><text x="648" y="-1011.2" font-family="monospace,monospace" font-size="14">onEnter: specialCategoryPopupShow()</text><text x="648" y="-997.2" font-family="monospace,monospace" font-size="14">onExit: specialCategoryPopupHide() </text></g><g class="edge"><path fill="none" stroke="#000" d="M721.7-1106.5c48.4 4.3 99.1 13 114.3 30.9 6.8 8 4.6 17.2-1.3 25.8"/><path stroke="#000" d="m837.4-1047.6-9.1 5.4 3.8-9.9 5.3 4.5z"/><text text-anchor="middle" x="1000.8" y="-1063" font-family="Arial" font-size="14">keyboard: &quot;y&quot; [categoryCarouselIsSpecialCategory] </text></g><g class="node"><path fill="none" stroke="#000" d="M524.8-1040.8H307.2v50h217.6v-50z"/><text x="357.2" y="-1025.2" font-family="monospace,monospace" font-size="14"> </text><text x="365.6" y="-1025.2" font-family="monospace,monospace" font-weight="bold" font-size="14">showGameBoard</text><text x="315.2" y="-1011.2" font-family="monospace,monospace" font-size="14">onEnter: gameBoardShow()</text><text x="315.2" y="-997.2" font-family="monospace,monospace" font-size="14">onExit: gameBoardHide() </text></g><g class="edge"><path fill="none" stroke="#000" d="M520.4-1107.9c-102.7 3.9-249.5 12.8-267.3 32.3-22.2 24.5 4.8 38.8 42.8 47.1"/><path stroke="#000" d="m296.3-1031.9 9.2 5.4-10.5 1.4 1.3-6.8z"/><text text-anchor="middle" x="479.6" y="-1063" font-family="Arial" font-size="14">keyboard: space if(!categoryCarouselHasMore) / categoryCarouselStop()</text></g><g class="edge"><path fill="none" stroke="#000" d="M754.7-1041.2a471.8 471.8 0 0 1-25.4-17.6c-9.1-6.8-9.6-10.9-19.3-16.8-8-4.8-16.7-9.2-25.5-13.1"/><path stroke="#000" d="m683.4-1085.4-7.8-7.1 10.6.7-2.8 6.4z"/><text text-anchor="middle" x="780.6" y="-1063" font-family="Arial" font-size="14">keyboard: space</text></g><g class="node"><path fill="none" stroke="#000" d="M568.2-938H333.8v36h234.4v-36z"/><text x="341.8" y="-916.8" font-family="monospace,monospace" font-size="14"> </text><text x="350.2" y="-916.8" font-family="monospace,monospace" font-weight="bold" font-size="14">showClueCategoryAndValue</text><text x="551.8" y="-916.8" font-family="monospace,monospace" font-size="14"> </text></g><g class="edge"><path fill="none" stroke="#000" d="M525-1007.6c50 5.8 101.5 16.2 117 34.8 4.8 5.7 4.8 11 0 16.8-9.3 11.1-33.8 18.7-62.3 23.9"/><path stroke="#000" d="m580.6-928.7-10.4-1.8 9.2-5.1 1.2 6.9z"/><text text-anchor="middle" x="747.8" y="-960.2" font-family="Arial" font-size="14">manualTrigger: &quot;userChoseClue&quot;</text></g><g class="edge"><path fill="none" stroke="#000" d="M306.7-992.3c-18.3 8.7-27.7 20.5-15 36.3 5.3 6.5 16.6 11.9 31 16.3"/><path stroke="#000" d="m323.4-943.1 8.7 6.1-10.6.6 1.9-6.7z"/><text text-anchor="middle" x="464.9" y="-960.2" font-family="Arial" font-size="14">timeout: new 10000 ms / teamTimedOutChoosingClue()</text></g><g class="node"><path fill="none" stroke="#000" d="M606-849.2H296v36h310v-36z"/><text x="379.6" y="-833.6" font-family="monospace,monospace" font-size="14"> </text><text x="388" y="-833.6" font-family="monospace,monospace" font-weight="bold" font-size="14">showClueQuestion</text><text x="304" y="-819.6" font-family="monospace,monospace" font-size="14">onEnter: fitClueQuestionToWindow() </text></g><g class="edge"><path fill="none" stroke="#000" d="M451-901.9v41"/><path stroke="#000" d="m454.5-861.1-3.5 10-3.5-10h7z"/><text text-anchor="middle" x="611.3" y="-871.4" font-family="Arial" font-size="14">timeout: continue 1000 ms / onShowClueQuestion()</text></g><g class="edge"><path fill="none" stroke="#000" d="M606.5-837.3c10.9 1.4 17.5 3.4 17.5 6.1 0 1.6-2.3 3-6.5 4"/><path stroke="#000" d="m618.4-823.7-10.5-1.7 9.3-5.2 1.2 6.9z"/><text text-anchor="middle" x="757.4" y="-827" font-family="Arial" font-size="14">keyboard: &quot;123456789&quot; / onTeamLockout()</text></g><g class="node"><path fill="none" stroke="#000" d="M522-760.4H380v36h142v-36z"/><text x="388" y="-739.2" font-family="monospace,monospace" font-size="14"> </text><text x="396.4" y="-739.2" font-family="monospace,monospace" font-weight="bold" font-size="14">waitForBuzzes</text><text x="505.6" y="-739.2" font-family="monospace,monospace" font-size="14"> </text></g><g class="edge"><path fill="none" stroke="#000" d="M451-813v41"/><path stroke="#000" d="m454.5-772.3-3.5 10-3.5-10h7z"/><text text-anchor="middle" x="605.9" y="-782.6" font-family="Arial" font-size="14">keyboard: space / onDoneReadingClueQuestion()</text></g><g class="node"><path fill="none" stroke="#000" d="M596.4-671.6H353.6v36h242.8v-36z"/><text x="399.4" y="-656" font-family="monospace,monospace" font-size="14"> </text><text x="407.8" y="-656" font-family="monospace,monospace" font-weight="bold" font-size="14">waitForTeamAnswer</text><text x="361.6" y="-642" font-family="monospace,monospace" font-size="14">onEnter: teamAnswerStart() </text></g><g class="edge"><path fill="none" stroke="#000" d="M449-724.2c-.6 10.3-.3 23.4 3.1 34.6.9 2.7 2 5.5 3.3 8"/><path stroke="#000" d="m458.3-683.5 2 10.4-8.1-6.9 6.1-3.5z"/><text text-anchor="middle" x="576.6" y="-693.8" font-family="Arial" font-size="14">keyboard: &quot;123456789&quot; [teamCanBuzz] </text></g><g class="node"><path fill="none" stroke="#000" d="M620.8-494H403.2v36h217.6v-36z"/><text x="465.8" y="-478.4" font-family="monospace,monospace" font-size="14"> </text><text x="474.2" y="-478.4" font-family="monospace,monospace" font-weight="bold" font-size="14">showAnswer</text><text x="411.2" y="-464.4" font-family="monospace,monospace" font-size="14">onEnter: onShowAnswer() </text></g><g class="edge"><path fill="none" stroke="#000" d="M522.3-741.4c65.5 1.6 156 8.8 178.7 35 11.6 13.4 10.1 145 0 159.6-16.5 23.7-42 39.4-69 49.7"/><path stroke="#000" d="m633.2-493.8-10.6.1 8.3-6.7 2.3 6.6z"/><text text-anchor="middle" x="888" y="-605" font-family="Arial" font-size="14">timeout: continue 5000 ms / playSoundQuestionTimeout()</text></g><g class="edge"><path fill="none" stroke="#000" d="M476.4-635.2c2 21.1 6.1 57.7 13.1 88.4 3.2 14 8 29.1 12.3 41.8"/><path stroke="#000" d="M505-506.3v10.6l-6.6-8.3 6.6-2.3z"/><text text-anchor="middle" x="595.3" y="-560.6" font-family="Arial" font-size="14">keyboard: &quot;y&quot; / onAnswerCorrect()</text></g><g class="node"><path fill="none" stroke="#000" d="M404.8-582.8H103.2v36h301.6v-36z"/><text x="165.8" y="-567.2" font-family="monospace,monospace" font-size="14"> </text><text x="174.2" y="-567.2" font-family="monospace,monospace" font-weight="bold" font-size="14">answerWrongOrTimeout</text><text x="111.2" y="-553.2" font-family="monospace,monospace" font-size="14">onEnter: onAnswerWrongOrTimeout() </text></g><g class="edge"><path fill="none" stroke="#000" d="M418.7-635.1a329 329 0 0 0-39.8 17.5c-11.1 6-11.7 11-22.9 16.8-9.7 5-20.3 9.7-30.9 13.7"/><path stroke="#000" d="m326.6-583.9-10.6.2 8.2-6.8 2.4 6.6z"/><text text-anchor="middle" x="420.4" y="-605" font-family="Arial" font-size="14">keyboard: &quot;n&quot;</text></g><g class="edge"><path fill="none" stroke="#000" d="M353.1-637c-67 8.6-136.8 18-138 19.4-7.4 8.4-3.2 18.1 4.8 26.9"/><path stroke="#000" d="m222-593.5 4.9 9.4-9.7-4.3 4.8-5.1z"/><text text-anchor="middle" x="283.5" y="-605" font-family="Arial" font-size="14">timeout: new 5000 ms</text></g><g class="node"><path fill="none" stroke="#000" d="M703.4-405.2H502.6v36h200.8v-36z"/><text x="510.6" y="-384" font-family="monospace,monospace" font-size="14"> </text><text x="519" y="-384" font-family="monospace,monospace" font-weight="bold" font-size="14">maybeShowBuzzHistory</text><text x="687" y="-384" font-family="monospace,monospace" font-size="14"> </text></g><g class="edge"><path fill="none" stroke="#000" d="m530-457.9 46.8 44.7"/><path stroke="#000" d="m578.8-416.1 4.9 9.4-9.7-4.3 4.8-5.1z"/><text text-anchor="middle" x="617" y="-427.4" font-family="Arial" font-size="14">keyboard: space</text></g><g class="edge"><path fill="none" stroke="#000" d="M225.3-583c-6.7-5.1-13.3-11.1-18.3-17.8-19.2-25.6-32.3-45.4-13-70.8 21.4-27.9 107.8-47.2 174.5-58.4"/><path stroke="#000" d="m367.6-733.4 10.4 1.9-9.3 5.1-1.1-7z"/><text text-anchor="middle" x="269.5" y="-649.4" font-family="Arial" font-size="14">if(!isAllTeamsAnswered)</text></g><g class="edge"><path fill="none" stroke="#000" d="M269.6-546.4A171 171 0 0 0 315-512a337.6 337.6 0 0 0 76.6 24"/><path stroke="#000" d="m392.1-491.5 9.2 5.3-10.5 1.6 1.3-6.9z"/><text text-anchor="middle" x="388.5" y="-516.2" font-family="Arial" font-size="14">if(isAllTeamsAnswered)</text></g><g class="node"><path fill="none" stroke="#000" d="M1044.6-316.4H793.4v50h251.2v-50z"/><text x="851.8" y="-300.8" font-family="monospace,monospace" font-size="14"> </text><text x="860.2" y="-300.8" font-family="monospace,monospace" font-weight="bold" font-size="14">showBuzzHistory</text><text x="801.4" y="-286.8" font-family="monospace,monospace" font-size="14">onEnter: onBuzzHistoryShow()</text><text x="801.4" y="-272.8" font-family="monospace,monospace" font-size="14">onExit: onBuzzHistoryHide() </text></g><g class="edge"><path fill="none" stroke="#000" d="m661.7-368.8 164 48.7"/><path stroke="#000" d="m826.5-323.5 8.5 6.2-10.5.5 2-6.7z"/><text text-anchor="middle" x="854.5" y="-338.6" font-family="Arial" font-size="14">if(buzzHistoryShouldShow)</text></g><g class="node"><path fill="none" stroke="#000" d="M1011-213.6H827v36h184v-36z"/><text x="835" y="-192.4" font-family="monospace,monospace" font-size="14"> </text><text x="843.4" y="-192.4" font-family="monospace,monospace" font-weight="bold" font-size="14">checkGameRoundOver</text><text x="994.6" y="-192.4" font-family="monospace,monospace" font-size="14"> </text></g><g class="edge"><path fill="none" stroke="#000" d="M598.5-368.7C593.1-343 587.4-295 612-266.4c26.4 30.6 124.9 49.2 203.3 59.4"/><path stroke="#000" d="m815.7-210.5 9.5 4.7-10.4 2.2.9-6.9z"/><text text-anchor="middle" x="698" y="-287.2" font-family="Arial" font-size="14">if(!buzzHistoryShouldShow)</text></g><g class="edge"><path fill="none" stroke="#000" d="M919-266.2v41"/><path stroke="#000" d="m922.5-225.4-3.5 10-3.5-10h7z"/><text text-anchor="middle" x="970.4" y="-235.8" font-family="Arial" font-size="14">keyboard: space</text></g><g class="edge"><path fill="none" stroke="#000" d="M1011.4-211.2c42.9-12.6 84.6-36 84.6-79.2V-921c0-52.3-413-64.8-465-69.8-30.6-3-63.7-6.5-94.5-9.9"/><path stroke="#000" d="m536.4-997.2-9.6-4.6 10.3-2.3-.7 6.9z"/><text text-anchor="middle" x="1166" y="-605" font-family="Arial" font-size="14">if(!isGameRoundOver)</text></g><g class="node"><path fill="none" stroke="#000" d="M1011-124.8H827v36h184v-36z"/><text x="835" y="-103.6" font-family="monospace,monospace" font-size="14"> </text><text x="843.4" y="-103.6" font-family="monospace,monospace" font-weight="bold" font-size="14">nextRoundOrEndGame</text><text x="994.6" y="-103.6" font-family="monospace,monospace" font-size="14"> </text></g><g class="edge"><path fill="none" stroke="#000" d="M919-177.4v41"/><path stroke="#000" d="m922.5-136.7-3.5 10-3.5-10h7z"/><text text-anchor="middle" x="987.1" y="-147" font-family="Arial" font-size="14">if(isGameRoundOver)</text></g><g class="edge"><path fill="none" stroke="#000" d="M826.7-107C593.7-106.2 0-112.2 0-194.6v-918c0-47.8 291.7-70.8 475.3-80.6"/><path stroke="#000" d="m475-1196.7 10.1 3-9.8 4-.3-7z"/><text text-anchor="middle" x="74.7" y="-649.4" font-family="Arial" font-size="14">if(gameRoundHasMore)</text></g><g class="node"><path fill="none" stroke="#000" d="M1118.2-36H925.8V0h192.4v-36z"/><text x="988.4" y="-20.4" font-family="monospace,monospace" font-size="14"> </text><text x="996.8" y="-20.4" font-family="monospace,monospace" font-weight="bold" font-size="14">gameEnd</text><text x="933.8" y="-6.4" font-family="monospace,monospace" font-size="14">onEnter: onGameEnd() </text></g><g class="edge"><path fill="none" stroke="#000" d="M939.4-88.7c15.2 13 36.4 30.7 53.4 45.1"/><path stroke="#000" d="m994.8-46.5 5.4 9.1-9.9-3.7 4.5-5.4z"/><text text-anchor="middle" x="1056.4" y="-58.2" font-family="Arial" font-size="14">if(!gameRoundHasMore)</text></g><g class="edge"><path fill="none" stroke="#000" d="M1114.2-36.5C1177.8-51.3 1251-75 1251-105.8v-1095.6c0-55.4-183.3-76.8-270.2-83.8"/><path stroke="#000" d="m980.6-1281.7-9.7-4.3 10.3-2.7-.6 7z"/><text text-anchor="middle" x="1320.5" y="-649.4" font-family="Arial" font-size="14">manualTrigger: &quot;reset&quot;</text></g></g></svg>