<?xml version="1.0" encoding="UTF-8" standalone="no"?>
<!DOCTYPE svg PUBLIC "-//W3C//DTD SVG 1.1//EN"
 "http://www.w3.org/Graphics/SVG/1.1/DTD/svg11.dtd">
<!-- Generated by graphviz version 2.49.3 (20211023.0002)
 -->
<!-- Title: jeopardy Pages: 1 -->
<svg width="1376pt" height="1001pt"
 viewBox="0.00 0.00 1376.37 1001.00" xmlns="http://www.w3.org/2000/svg" xmlns:xlink="http://www.w3.org/1999/xlink">
<g id="jeopardy" class="graph" transform="scale(1 1) rotate(0) translate(4 997)">
<title>jeopardy</title>
<polygon fill="white" stroke="transparent" points="-4,4 -4,-997 1372.37,-997 1372.37,4 -4,4"/>
<!-- idle -->
<g id="idle" class="node">
<title>idle</title>
<polygon fill="none" stroke="black" points="1241.37,-993 1187.37,-993 1187.37,-957 1241.37,-957 1241.37,-993"/>
<text text-anchor="middle" x="1214.37" y="-971.3" font-family="monospace" font-size="14.00">idle</text>
</g>
<!-- getClueFromJService -->
<g id="getClueFromJService" class="node">
<title>getClueFromJService</title>
<polygon fill="none" stroke="black" points="1231.87,-906 1058.87,-906 1058.87,-870 1231.87,-870 1231.87,-906"/>
<text text-anchor="middle" x="1145.37" y="-884.3" font-family="monospace" font-size="14.00">getClueFromJService</text>
</g>
<!-- idle&#45;&gt;getClueFromJService -->
<g id="idle_to_getClueFromJService" class="edge">
<title>idle&#45;&gt;getClueFromJService</title>
<path fill="none" stroke="black" d="M1187.36,-964.33C1175.46,-958.72 1162.39,-950.46 1154.37,-939 1149.73,-932.37 1147.26,-924.06 1146,-916.14"/>
<polygon fill="black" stroke="black" points="1149.47,-915.7 1144.96,-906.11 1142.51,-916.42 1149.47,-915.7"/>
<text text-anchor="middle" x="1211.87" y="-927.8" font-family="Times New Roman,serif" font-size="14.00">manual: &quot;startGame&quot;</text>
</g>
<!-- showClueCategoryAndDollars -->
<g id="showClueCategoryAndDollars" class="node">
<title>showClueCategoryAndDollars</title>
<polygon fill="none" stroke="black" points="1065.87,-819 834.87,-819 834.87,-783 1065.87,-783 1065.87,-819"/>
<text text-anchor="middle" x="950.37" y="-797.3" font-family="monospace" font-size="14.00">showClueCategoryAndDollars</text>
</g>
<!-- getClueFromJService&#45;&gt;showClueCategoryAndDollars -->
<g id="getClueFromJService_to_showClueCategoryAndDollars" class="edge">
<title>getClueFromJService&#45;&gt;showClueCategoryAndDollars</title>
<path fill="none" stroke="black" d="M1105.91,-869.8C1075.02,-856.33 1031.9,-837.54 998.9,-823.15"/>
<polygon fill="black" stroke="black" points="1000.01,-819.82 989.44,-819.03 997.21,-826.23 1000.01,-819.82"/>
<text text-anchor="middle" x="1082.37" y="-840.8" font-family="Times New Roman,serif" font-size="14.00">promise</text>
</g>
<!-- showClueQuestion -->
<g id="showClueQuestion" class="node">
<title>showClueQuestion</title>
<polygon fill="none" stroke="black" points="871.87,-732 722.87,-732 722.87,-696 871.87,-696 871.87,-732"/>
<text text-anchor="middle" x="797.37" y="-710.3" font-family="monospace" font-size="14.00">showClueQuestion</text>
</g>
<!-- showClueCategoryAndDollars&#45;&gt;showClueQuestion -->
<g id="showClueCategoryAndDollars_to_showClueQuestion" class="edge">
<title>showClueCategoryAndDollars&#45;&gt;showClueQuestion</title>
<path fill="none" stroke="black" d="M919.41,-782.8C895.59,-769.56 862.5,-751.18 836.79,-736.9"/>
<polygon fill="black" stroke="black" points="838.47,-733.83 828.02,-732.03 835.07,-739.95 838.47,-733.83"/>
<text text-anchor="middle" x="919.37" y="-753.8" font-family="Times New Roman,serif" font-size="14.00">timeout: 3sec</text>
</g>
<!-- showClueQuestion&#45;&gt;showClueQuestion -->
<g id="showClueQuestion_to_showClueQuestion" class="edge">
<title>showClueQuestion&#45;&gt;showClueQuestion</title>
<path fill="none" stroke="black" d="M872.13,-721.07C882.75,-719.92 889.87,-717.57 889.87,-714 889.87,-711.71 886.95,-709.93 882.06,-708.64"/>
<polygon fill="black" stroke="black" points="882.58,-705.17 872.13,-706.93 881.4,-712.07 882.58,-705.17"/>
<text text-anchor="middle" x="1003.37" y="-710.3" font-family="Times New Roman,serif" font-size="14.00">keyboard: &quot;123456789&quot; / handleLockout</text>
</g>
<!-- waitForBuzzesRestartTimer -->
<g id="waitForBuzzesRestartTimer" class="node">
<title>waitForBuzzesRestartTimer</title>
<polygon fill="none" stroke="black" points="908.87,-645 685.87,-645 685.87,-609 908.87,-609 908.87,-645"/>
<text text-anchor="middle" x="797.37" y="-623.3" font-family="monospace" font-size="14.00">waitForBuzzesRestartTimer</text>
</g>
<!-- showClueQuestion&#45;&gt;waitForBuzzesRestartTimer -->
<g id="showClueQuestion_to_waitForBuzzesRestartTimer" class="edge">
<title>showClueQuestion&#45;&gt;waitForBuzzesRestartTimer</title>
<path fill="none" stroke="black" d="M797.37,-695.8C797.37,-684.16 797.37,-668.55 797.37,-655.24"/>
<polygon fill="black" stroke="black" points="800.87,-655.18 797.37,-645.18 793.87,-655.18 800.87,-655.18"/>
<text text-anchor="middle" x="847.87" y="-666.8" font-family="Times New Roman,serif" font-size="14.00">keyboard: [space]</text>
</g>
<!-- showAnswer -->
<g id="showAnswer" class="node">
<title>showAnswer</title>
<polygon fill="none" stroke="black" points="722.87,-210 623.87,-210 623.87,-174 722.87,-174 722.87,-210"/>
<text text-anchor="middle" x="673.37" y="-188.3" font-family="monospace" font-size="14.00">showAnswer</text>
</g>
<!-- waitForBuzzesRestartTimer&#45;&gt;showAnswer -->
<g id="waitForBuzzesRestartTimer_to_showAnswer" class="edge">
<title>waitForBuzzesRestartTimer&#45;&gt;showAnswer</title>
<path fill="none" stroke="black" d="M831.05,-608.88C854.42,-594.36 881.37,-571.08 881.37,-541 881.37,-541 881.37,-541 881.37,-278 881.37,-213.42 794.4,-196.82 732.94,-193.15"/>
<polygon fill="black" stroke="black" points="733.09,-189.65 722.93,-192.65 732.74,-196.64 733.09,-189.65"/>
<text text-anchor="middle" x="1005.87" y="-405.8" font-family="Times New Roman,serif" font-size="14.00">timeout: 10sec / playSoundQuestionTimeout</text>
</g>
<!-- checkIfTeamCanAnswer -->
<g id="checkIfTeamCanAnswer" class="node">
<title>checkIfTeamCanAnswer</title>
<polygon fill="none" stroke="black" points="465.37,-558 283.37,-558 283.37,-522 465.37,-522 465.37,-558"/>
<text text-anchor="middle" x="374.37" y="-536.3" font-family="monospace" font-size="14.00">checkIfTeamCanAnswer</text>
</g>
<!-- waitForBuzzesRestartTimer&#45;&gt;checkIfTeamCanAnswer -->
<g id="waitForBuzzesRestartTimer_to_checkIfTeamCanAnswer" class="edge">
<title>waitForBuzzesRestartTimer&#45;&gt;checkIfTeamCanAnswer</title>
<path fill="none" stroke="black" d="M712.53,-608.95C642.16,-594.81 542.18,-574.72 469.18,-560.05"/>
<polygon fill="black" stroke="black" points="469.56,-556.56 459.07,-558.02 468.18,-563.42 469.56,-556.56"/>
<text text-anchor="middle" x="676.87" y="-579.8" font-family="Times New Roman,serif" font-size="14.00">keyboard: &quot;123456789&quot;</text>
</g>
<!-- checkGameEnd -->
<g id="checkGameEnd" class="node">
<title>checkGameEnd</title>
<polygon fill="none" stroke="black" points="1203.37,-123 1087.37,-123 1087.37,-87 1203.37,-87 1203.37,-123"/>
<text text-anchor="middle" x="1145.37" y="-101.3" font-family="monospace" font-size="14.00">checkGameEnd</text>
</g>
<!-- showAnswer&#45;&gt;checkGameEnd -->
<g id="showAnswer_to_checkGameEnd" class="edge">
<title>showAnswer&#45;&gt;checkGameEnd</title>
<path fill="none" stroke="black" d="M722.99,-182.06C807.91,-166.77 981.24,-135.56 1077.36,-118.25"/>
<polygon fill="black" stroke="black" points="1078.05,-121.68 1087.27,-116.46 1076.81,-114.79 1078.05,-121.68"/>
<text text-anchor="middle" x="974.37" y="-144.8" font-family="Times New Roman,serif" font-size="14.00">timeout: 3sec</text>
</g>
<!-- waitForBuzzesResumeTimer -->
<g id="waitForBuzzesResumeTimer" class="node">
<title>waitForBuzzesResumeTimer</title>
<polygon fill="none" stroke="black" points="317.87,-297 102.87,-297 102.87,-261 317.87,-261 317.87,-297"/>
<text text-anchor="middle" x="210.37" y="-275.3" font-family="monospace" font-size="14.00">waitForBuzzesResumeTimer</text>
</g>
<!-- checkIfTeamCanAnswer&#45;&gt;waitForBuzzesResumeTimer -->
<g id="checkIfTeamCanAnswer_to_waitForBuzzesResumeTimer" class="edge">
<title>checkIfTeamCanAnswer&#45;&gt;waitForBuzzesResumeTimer</title>
<path fill="none" stroke="black" d="M363.36,-521.6C335.17,-477.09 260.32,-358.88 226.89,-306.09"/>
<polygon fill="black" stroke="black" points="229.64,-303.9 221.34,-297.32 223.73,-307.64 229.64,-303.9"/>
<text text-anchor="middle" x="346.37" y="-405.8" font-family="Times New Roman,serif" font-size="14.00">if(!canTeamBuzz)</text>
</g>
<!-- waitForTeamAnswer -->
<g id="waitForTeamAnswer" class="node">
<title>waitForTeamAnswer</title>
<polygon fill="none" stroke="black" points="573.87,-471 416.87,-471 416.87,-435 573.87,-435 573.87,-471"/>
<text text-anchor="middle" x="495.37" y="-449.3" font-family="monospace" font-size="14.00">waitForTeamAnswer</text>
</g>
<!-- checkIfTeamCanAnswer&#45;&gt;waitForTeamAnswer -->
<g id="checkIfTeamCanAnswer_to_waitForTeamAnswer" class="edge">
<title>checkIfTeamCanAnswer&#45;&gt;waitForTeamAnswer</title>
<path fill="none" stroke="black" d="M398.86,-521.8C417.23,-508.9 442.56,-491.1 462.66,-476.98"/>
<polygon fill="black" stroke="black" points="464.75,-479.79 470.92,-471.18 460.73,-474.06 464.75,-479.79"/>
<text text-anchor="middle" x="490.37" y="-492.8" font-family="Times New Roman,serif" font-size="14.00">if(canTeamBuzz)</text>
</g>
<!-- waitForBuzzesResumeTimer&#45;&gt;showAnswer -->
<g id="waitForBuzzesResumeTimer_to_showAnswer" class="edge">
<title>waitForBuzzesResumeTimer&#45;&gt;showAnswer</title>
<path fill="none" stroke="black" d="M102.62,-272.32C59.48,-267.58 16.81,-258.9 3.37,-243 -0.93,-237.91 -1.22,-232.84 3.37,-228 24.21,-206.04 453.22,-196.66 613.59,-193.92"/>
<polygon fill="black" stroke="black" points="613.81,-197.41 623.75,-193.74 613.7,-190.41 613.81,-197.41"/>
<text text-anchor="middle" x="241.37" y="-231.8" font-family="Times New Roman,serif" font-size="14.00">timeout: () =&gt; stateMachine.remainingQuestionTimeMs / playSoundQuestionTimeout</text>
</g>
<!-- waitForBuzzesResumeTimer&#45;&gt;checkIfTeamCanAnswer -->
<g id="waitForBuzzesResumeTimer_to_checkIfTeamCanAnswer" class="edge">
<title>waitForBuzzesResumeTimer&#45;&gt;checkIfTeamCanAnswer</title>
<path fill="none" stroke="black" d="M188.47,-297.07C158.03,-322.97 109.24,-373.76 133.37,-417 163.6,-471.18 226.96,-501.95 281.12,-519.02"/>
<polygon fill="black" stroke="black" points="280.19,-522.4 290.77,-521.96 282.22,-515.7 280.19,-522.4"/>
<text text-anchor="middle" x="199.87" y="-405.8" font-family="Times New Roman,serif" font-size="14.00">keyboard: &quot;123456789&quot;</text>
</g>
<!-- waitForTeamAnswer&#45;&gt;showAnswer -->
<g id="waitForTeamAnswer_to_showAnswer" class="edge">
<title>waitForTeamAnswer&#45;&gt;showAnswer</title>
<path fill="none" stroke="black" d="M573.91,-436.56C585.71,-431.72 597.04,-425.36 606.37,-417 649.81,-378.11 643.55,-353.12 659.37,-297 666.53,-271.62 670.07,-241.68 671.79,-220.46"/>
<polygon fill="black" stroke="black" points="675.3,-220.46 672.54,-210.23 668.32,-219.95 675.3,-220.46"/>
<text text-anchor="middle" x="759.87" y="-318.8" font-family="Times New Roman,serif" font-size="14.00">keyboard: &quot;y&quot; / handleAnswerCorrect</text>
</g>
<!-- subtractMoney -->
<g id="subtractMoney" class="node">
<title>subtractMoney</title>
<polygon fill="none" stroke="black" points="531.37,-384 407.37,-384 407.37,-348 531.37,-348 531.37,-384"/>
<text text-anchor="middle" x="469.37" y="-362.3" font-family="monospace" font-size="14.00">subtractMoney</text>
</g>
<!-- waitForTeamAnswer&#45;&gt;subtractMoney -->
<g id="waitForTeamAnswer_to_subtractMoney" class="edge">
<title>waitForTeamAnswer&#45;&gt;subtractMoney</title>
<path fill="none" stroke="black" d="M513.16,-434.83C520.96,-425.16 527.16,-412.88 521.37,-402 519.18,-397.89 516.27,-394.18 512.95,-390.84"/>
<polygon fill="black" stroke="black" points="514.98,-387.98 505.11,-384.14 510.43,-393.3 514.98,-387.98"/>
<text text-anchor="middle" x="562.87" y="-405.8" font-family="Times New Roman,serif" font-size="14.00">keyboard: &quot;n&quot;</text>
</g>
<!-- waitForTeamAnswer&#45;&gt;subtractMoney -->
<g id="waitForTeamAnswer_to_subtractMoney" class="edge">
<title>waitForTeamAnswer&#45;&gt;subtractMoney</title>
<path fill="none" stroke="black" d="M459.63,-434.86C453.1,-430.03 447.15,-424.11 443.37,-417 439.16,-409.09 441.29,-400.45 445.76,-392.6"/>
<polygon fill="black" stroke="black" points="448.78,-394.38 451.58,-384.17 443.02,-390.41 448.78,-394.38"/>
<text text-anchor="middle" x="480.37" y="-405.8" font-family="Times New Roman,serif" font-size="14.00">timeout: 5sec</text>
</g>
<!-- subtractMoney&#45;&gt;showAnswer -->
<g id="subtractMoney_to_showAnswer" class="edge">
<title>subtractMoney&#45;&gt;showAnswer</title>
<path fill="none" stroke="black" d="M474.81,-347.82C483.74,-319.98 501.14,-267.48 507.37,-261 535.79,-231.46 578.87,-214.32 614.02,-204.64"/>
<polygon fill="black" stroke="black" points="614.92,-208.02 623.71,-202.1 613.15,-201.25 614.92,-208.02"/>
<text text-anchor="middle" x="583.37" y="-275.3" font-family="Times New Roman,serif" font-size="14.00">if(haveAllTeamsAnswered)</text>
</g>
<!-- subtractMoney&#45;&gt;waitForBuzzesResumeTimer -->
<g id="subtractMoney_to_waitForBuzzesResumeTimer" class="edge">
<title>subtractMoney&#45;&gt;waitForBuzzesResumeTimer</title>
<path fill="none" stroke="black" d="M407.06,-355.1C380.32,-349.6 349.13,-341.5 322.37,-330 311.16,-325.18 310.22,-320.6 299.37,-315 289.66,-309.99 279.05,-305.24 268.65,-300.95"/>
<polygon fill="black" stroke="black" points="269.78,-297.63 259.2,-297.14 267.17,-304.12 269.78,-297.63"/>
<text text-anchor="middle" x="400.87" y="-318.8" font-family="Times New Roman,serif" font-size="14.00">if(!haveAllTeamsAnswered)</text>
</g>
<!-- checkGameEnd&#45;&gt;getClueFromJService -->
<g id="checkGameEnd_to_getClueFromJService" class="edge">
<title>checkGameEnd&#45;&gt;getClueFromJService</title>
<path fill="none" stroke="black" d="M1145.37,-123.26C1145.37,-140.43 1145.37,-167.54 1145.37,-191 1145.37,-802 1145.37,-802 1145.37,-802 1145.37,-821.25 1145.37,-842.95 1145.37,-859.6"/>
<polygon fill="black" stroke="black" points="1141.87,-859.74 1145.37,-869.74 1148.87,-859.74 1141.87,-859.74"/>
<text text-anchor="middle" x="1202.87" y="-492.8" font-family="Times New Roman,serif" font-size="14.00">if(!shouldGameEnd)</text>
</g>
<!-- gameEnd -->
<g id="gameEnd" class="node">
<title>gameEnd</title>
<polygon fill="none" stroke="black" points="1251.37,-36 1177.37,-36 1177.37,0 1251.37,0 1251.37,-36"/>
<text text-anchor="middle" x="1214.37" y="-14.3" font-family="monospace" font-size="14.00">gameEnd</text>
</g>
<!-- checkGameEnd&#45;&gt;gameEnd -->
<g id="checkGameEnd_to_gameEnd" class="edge">
<title>checkGameEnd&#45;&gt;gameEnd</title>
<path fill="none" stroke="black" d="M1147.05,-86.9C1148.78,-76.55 1152.28,-63.55 1159.37,-54 1162.62,-49.63 1166.59,-45.66 1170.89,-42.1"/>
<polygon fill="black" stroke="black" points="1172.98,-44.91 1178.92,-36.14 1168.81,-39.29 1172.98,-44.91"/>
<text text-anchor="middle" x="1214.37" y="-57.8" font-family="Times New Roman,serif" font-size="14.00">if(shouldGameEnd)</text>
</g>
<!-- gameEnd&#45;&gt;idle -->
<g id="gameEnd_to_idle" class="edge">
<title>gameEnd&#45;&gt;idle</title>
<path fill="none" stroke="black" d="M1249.82,-36.14C1257.13,-41.05 1264.18,-47 1269.37,-54 1283.12,-72.53 1283.37,-80.92 1283.37,-104 1283.37,-889 1283.37,-889 1283.37,-889 1283.37,-912.08 1283.12,-920.47 1269.37,-939 1264.23,-945.92 1257.28,-951.83 1250.05,-956.7"/>
<polygon fill="black" stroke="black" points="1248.2,-953.73 1241.53,-961.95 1251.88,-959.69 1248.2,-953.73"/>
<text text-anchor="middle" x="1325.87" y="-492.8" font-family="Times New Roman,serif" font-size="14.00">manual: &quot;reset&quot;</text>
</g>
</g>
</svg>
