<?xml version="1.0" encoding="UTF-8" standalone="no"?>
<!DOCTYPE svg PUBLIC "-//W3C//DTD SVG 1.1//EN"
 "http://www.w3.org/Graphics/SVG/1.1/DTD/svg11.dtd">
<!-- Generated by graphviz version 2.49.3 (20211023.0002)
 -->
<!-- Title: jeopardy Pages: 1 -->
<svg width="875pt" height="914pt"
 viewBox="0.00 0.00 875.00 914.00" xmlns="http://www.w3.org/2000/svg" xmlns:xlink="http://www.w3.org/1999/xlink">
<g id="jeopardy" class="graph" transform="scale(1 1) rotate(0) translate(4 910)">
<title>jeopardy</title>
<polygon fill="white" stroke="transparent" points="-4,4 -4,-910 871,-910 871,4 -4,4"/>
<!-- idle -->
<g id="idle" class="node">
<title>idle</title>
<polygon fill="none" stroke="black" points="734,-906 680,-906 680,-870 734,-870 734,-906"/>
<text text-anchor="middle" x="707" y="-884.3" font-family="monospace" font-size="14.00">idle</text>
</g>
<!-- getClueFromJService -->
<g id="getClueFromJService" class="node">
<title>getClueFromJService</title>
<polygon fill="none" stroke="black" points="717.5,-819 544.5,-819 544.5,-783 717.5,-783 717.5,-819"/>
<text text-anchor="middle" x="631" y="-797.3" font-family="monospace" font-size="14.00">getClueFromJService</text>
</g>
<!-- idle&#45;&gt;getClueFromJService -->
<g id="idle_to_getClueFromJService" class="edge">
<title>idle&#45;&gt;getClueFromJService</title>
<path fill="none" stroke="black" d="M679.9,-873.66C670.46,-868 660.39,-860.68 653,-852 647.23,-845.22 642.74,-836.69 639.36,-828.61"/>
<polygon fill="black" stroke="black" points="642.58,-827.24 635.77,-819.12 636.03,-829.71 642.58,-827.24"/>
<text text-anchor="middle" x="710.5" y="-840.8" font-family="Times New Roman,serif" font-size="14.00">manual: &quot;startGame&quot;</text>
</g>
<!-- showClueCategoryAndDollars -->
<g id="showClueCategoryAndDollars" class="node">
<title>showClueCategoryAndDollars</title>
<polygon fill="none" stroke="black" points="551.5,-732 320.5,-732 320.5,-696 551.5,-696 551.5,-732"/>
<text text-anchor="middle" x="436" y="-710.3" font-family="monospace" font-size="14.00">showClueCategoryAndDollars</text>
</g>
<!-- getClueFromJService&#45;&gt;showClueCategoryAndDollars -->
<g id="getClueFromJService_to_showClueCategoryAndDollars" class="edge">
<title>getClueFromJService&#45;&gt;showClueCategoryAndDollars</title>
<path fill="none" stroke="black" d="M591.54,-782.8C560.65,-769.33 517.53,-750.54 484.53,-736.15"/>
<polygon fill="black" stroke="black" points="485.63,-732.82 475.07,-732.03 482.84,-739.23 485.63,-732.82"/>
<text text-anchor="middle" x="568" y="-753.8" font-family="Times New Roman,serif" font-size="14.00">promise</text>
</g>
<!-- showClueQuestion -->
<g id="showClueQuestion" class="node">
<title>showClueQuestion</title>
<polygon fill="none" stroke="black" points="357.5,-645 208.5,-645 208.5,-609 357.5,-609 357.5,-645"/>
<text text-anchor="middle" x="283" y="-623.3" font-family="monospace" font-size="14.00">showClueQuestion</text>
</g>
<!-- showClueCategoryAndDollars&#45;&gt;showClueQuestion -->
<g id="showClueCategoryAndDollars_to_showClueQuestion" class="edge">
<title>showClueCategoryAndDollars&#45;&gt;showClueQuestion</title>
<path fill="none" stroke="black" d="M405.04,-695.8C381.21,-682.56 348.13,-664.18 322.41,-649.9"/>
<polygon fill="black" stroke="black" points="324.1,-646.83 313.65,-645.03 320.7,-652.95 324.1,-646.83"/>
<text text-anchor="middle" x="405" y="-666.8" font-family="Times New Roman,serif" font-size="14.00">timeout: 3sec</text>
</g>
<!-- showClueQuestion&#45;&gt;showClueQuestion -->
<g id="showClueQuestion_to_showClueQuestion" class="edge">
<title>showClueQuestion&#45;&gt;showClueQuestion</title>
<path fill="none" stroke="black" d="M357.76,-634.07C368.38,-632.92 375.5,-630.57 375.5,-627 375.5,-624.71 372.58,-622.93 367.69,-621.64"/>
<polygon fill="black" stroke="black" points="368.21,-618.17 357.76,-619.93 367.03,-625.07 368.21,-618.17"/>
<text text-anchor="middle" x="489" y="-623.3" font-family="Times New Roman,serif" font-size="14.00">keyboard: &quot;123456789&quot; / handleLockout</text>
</g>
<!-- waitForBuzzes -->
<g id="waitForBuzzes" class="node">
<title>waitForBuzzes</title>
<polygon fill="none" stroke="black" points="345,-558 221,-558 221,-522 345,-522 345,-558"/>
<text text-anchor="middle" x="283" y="-536.3" font-family="monospace" font-size="14.00">waitForBuzzes</text>
</g>
<!-- showClueQuestion&#45;&gt;waitForBuzzes -->
<g id="showClueQuestion_to_waitForBuzzes" class="edge">
<title>showClueQuestion&#45;&gt;waitForBuzzes</title>
<path fill="none" stroke="black" d="M283,-608.8C283,-597.16 283,-581.55 283,-568.24"/>
<polygon fill="black" stroke="black" points="286.5,-568.18 283,-558.18 279.5,-568.18 286.5,-568.18"/>
<text text-anchor="middle" x="433" y="-579.8" font-family="Times New Roman,serif" font-size="14.00">keyboard: [space] / handleDoneReadingClueQuestion</text>
</g>
<!-- showAnswer -->
<g id="showAnswer" class="node">
<title>showAnswer</title>
<polygon fill="none" stroke="black" points="254.5,-210 155.5,-210 155.5,-174 254.5,-174 254.5,-210"/>
<text text-anchor="middle" x="205" y="-188.3" font-family="monospace" font-size="14.00">showAnswer</text>
</g>
<!-- waitForBuzzes&#45;&gt;showAnswer -->
<g id="waitForBuzzes_to_showAnswer" class="edge">
<title>waitForBuzzes&#45;&gt;showAnswer</title>
<path fill="none" stroke="black" d="M220.89,-532.93C137.59,-523.05 0,-499.79 0,-454 0,-454 0,-454 0,-278 0,-214.63 84.63,-197.6 145.14,-193.53"/>
<polygon fill="black" stroke="black" points="145.59,-197 155.38,-192.94 145.19,-190.02 145.59,-197"/>
<text text-anchor="middle" x="124.5" y="-362.3" font-family="Times New Roman,serif" font-size="14.00">timeout: 10sec / playSoundQuestionTimeout</text>
</g>
<!-- checkIfTeamCanBuzz -->
<g id="checkIfTeamCanBuzz" class="node">
<title>checkIfTeamCanBuzz</title>
<polygon fill="none" stroke="black" points="422.5,-471 257.5,-471 257.5,-435 422.5,-435 422.5,-471"/>
<text text-anchor="middle" x="340" y="-449.3" font-family="monospace" font-size="14.00">checkIfTeamCanBuzz</text>
</g>
<!-- waitForBuzzes&#45;&gt;checkIfTeamCanBuzz -->
<g id="waitForBuzzes_to_checkIfTeamCanBuzz" class="edge">
<title>waitForBuzzes&#45;&gt;checkIfTeamCanBuzz</title>
<path fill="none" stroke="black" d="M220.84,-527.27C194.37,-519.42 172.53,-507.15 187,-489 195.4,-478.47 220.12,-470.85 247.32,-465.47"/>
<polygon fill="black" stroke="black" points="248.23,-468.86 257.42,-463.58 246.95,-461.98 248.23,-468.86"/>
<text text-anchor="middle" x="253.5" y="-492.8" font-family="Times New Roman,serif" font-size="14.00">keyboard: &quot;123456789&quot;</text>
</g>
<!-- checkGameEnd -->
<g id="checkGameEnd" class="node">
<title>checkGameEnd</title>
<polygon fill="none" stroke="black" points="689,-123 573,-123 573,-87 689,-87 689,-123"/>
<text text-anchor="middle" x="631" y="-101.3" font-family="monospace" font-size="14.00">checkGameEnd</text>
</g>
<!-- showAnswer&#45;&gt;checkGameEnd -->
<g id="showAnswer_to_checkGameEnd" class="edge">
<title>showAnswer&#45;&gt;checkGameEnd</title>
<path fill="none" stroke="black" d="M254.7,-181.08C330.92,-165.88 476.84,-136.76 562.86,-119.6"/>
<polygon fill="black" stroke="black" points="563.67,-123 572.79,-117.61 562.3,-116.14 563.67,-123"/>
<text text-anchor="middle" x="480" y="-144.8" font-family="Times New Roman,serif" font-size="14.00">timeout: 3sec</text>
</g>
<!-- checkIfTeamCanBuzz&#45;&gt;waitForBuzzes -->
<g id="checkIfTeamCanBuzz_to_waitForBuzzes" class="edge">
<title>checkIfTeamCanBuzz&#45;&gt;waitForBuzzes</title>
<path fill="none" stroke="black" d="M335.2,-471.11C331.88,-481.21 326.83,-493.95 320,-504 317.47,-507.72 314.49,-511.34 311.33,-514.76"/>
<polygon fill="black" stroke="black" points="308.82,-512.32 304.24,-521.88 313.78,-517.26 308.82,-512.32"/>
<text text-anchor="middle" x="377" y="-492.8" font-family="Times New Roman,serif" font-size="14.00">if(!canTeamBuzz)</text>
</g>
<!-- waitForTeamAnswer -->
<g id="waitForTeamAnswer" class="node">
<title>waitForTeamAnswer</title>
<polygon fill="none" stroke="black" points="424.5,-384 267.5,-384 267.5,-348 424.5,-348 424.5,-384"/>
<text text-anchor="middle" x="346" y="-362.3" font-family="monospace" font-size="14.00">waitForTeamAnswer</text>
</g>
<!-- checkIfTeamCanBuzz&#45;&gt;waitForTeamAnswer -->
<g id="checkIfTeamCanBuzz_to_waitForTeamAnswer" class="edge">
<title>checkIfTeamCanBuzz&#45;&gt;waitForTeamAnswer</title>
<path fill="none" stroke="black" d="M339.83,-434.85C339.86,-425.19 340.12,-412.9 341,-402 341.21,-399.43 341.48,-396.76 341.8,-394.1"/>
<polygon fill="black" stroke="black" points="345.28,-394.42 343.14,-384.04 338.35,-393.49 345.28,-394.42"/>
<text text-anchor="middle" x="389" y="-405.8" font-family="Times New Roman,serif" font-size="14.00">if(canTeamBuzz)</text>
</g>
<!-- waitForTeamAnswer&#45;&gt;showAnswer -->
<g id="waitForTeamAnswer_to_showAnswer" class="edge">
<title>waitForTeamAnswer&#45;&gt;showAnswer</title>
<path fill="none" stroke="black" d="M267.42,-349.99C213.69,-337.94 149.34,-319.37 133,-297 113.04,-269.68 143.18,-237.58 170.35,-216.34"/>
<polygon fill="black" stroke="black" points="172.74,-218.93 178.63,-210.12 168.53,-213.33 172.74,-218.93"/>
<text text-anchor="middle" x="238.5" y="-275.3" font-family="Times New Roman,serif" font-size="14.00">keyboard: &quot;y&quot; / handleAnswerCorrect</text>
</g>
<!-- subtractMoney -->
<g id="subtractMoney" class="node">
<title>subtractMoney</title>
<polygon fill="none" stroke="black" points="477,-297 353,-297 353,-261 477,-261 477,-297"/>
<text text-anchor="middle" x="415" y="-275.3" font-family="monospace" font-size="14.00">subtractMoney</text>
</g>
<!-- waitForTeamAnswer&#45;&gt;subtractMoney -->
<g id="waitForTeamAnswer_to_subtractMoney" class="edge">
<title>waitForTeamAnswer&#45;&gt;subtractMoney</title>
<path fill="none" stroke="black" d="M288.35,-347.97C270.6,-339.73 258.24,-328.64 269,-315 270.29,-313.37 306.51,-304.68 342.55,-296.37"/>
<polygon fill="black" stroke="black" points="343.72,-299.69 352.69,-294.04 342.16,-292.87 343.72,-299.69"/>
<text text-anchor="middle" x="308.5" y="-318.8" font-family="Times New Roman,serif" font-size="14.00">keyboard: &quot;n&quot;</text>
</g>
<!-- waitForTeamAnswer&#45;&gt;subtractMoney -->
<g id="waitForTeamAnswer_to_subtractMoney" class="edge">
<title>waitForTeamAnswer&#45;&gt;subtractMoney</title>
<path fill="none" stroke="black" d="M352.43,-347.71C356.73,-337.54 363.05,-324.8 371,-315 374.22,-311.03 377.97,-307.21 381.89,-303.66"/>
<polygon fill="black" stroke="black" points="384.18,-306.31 389.55,-297.18 379.66,-300.96 384.18,-306.31"/>
<text text-anchor="middle" x="408" y="-318.8" font-family="Times New Roman,serif" font-size="14.00">timeout: 5sec</text>
</g>
<!-- subtractMoney&#45;&gt;waitForBuzzes -->
<g id="subtractMoney_to_waitForBuzzes" class="edge">
<title>subtractMoney&#45;&gt;waitForBuzzes</title>
<path fill="none" stroke="black" d="M433.96,-297.26C438.44,-302.48 442.61,-308.54 445,-315 459.61,-354.5 458.43,-472.05 431,-504 420.67,-516.03 387.47,-524.47 355.13,-530.05"/>
<polygon fill="black" stroke="black" points="354.44,-526.61 345.14,-531.69 355.58,-533.52 354.44,-526.61"/>
<text text-anchor="middle" x="532.5" y="-405.8" font-family="Times New Roman,serif" font-size="14.00">if(!haveAllTeamsAnswered)</text>
</g>
<!-- subtractMoney&#45;&gt;showAnswer -->
<g id="subtractMoney_to_showAnswer" class="edge">
<title>subtractMoney&#45;&gt;showAnswer</title>
<path fill="none" stroke="black" d="M372.76,-260.9C339.22,-247.33 292.2,-228.29 256.47,-213.83"/>
<polygon fill="black" stroke="black" points="257.76,-210.58 247.18,-210.07 255.13,-217.07 257.76,-210.58"/>
<text text-anchor="middle" x="398" y="-231.8" font-family="Times New Roman,serif" font-size="14.00">if(haveAllTeamsAnswered)</text>
</g>
<!-- checkGameEnd&#45;&gt;getClueFromJService -->
<g id="checkGameEnd_to_getClueFromJService" class="edge">
<title>checkGameEnd&#45;&gt;getClueFromJService</title>
<path fill="none" stroke="black" d="M631,-123.26C631,-140.43 631,-167.54 631,-191 631,-715 631,-715 631,-715 631,-734.25 631,-755.95 631,-772.6"/>
<polygon fill="black" stroke="black" points="627.5,-772.74 631,-782.74 634.5,-772.74 627.5,-772.74"/>
<text text-anchor="middle" x="688.5" y="-449.3" font-family="Times New Roman,serif" font-size="14.00">if(!shouldGameEnd)</text>
</g>
<!-- gameEnd -->
<g id="gameEnd" class="node">
<title>gameEnd</title>
<polygon fill="none" stroke="black" points="743,-36 669,-36 669,0 743,0 743,-36"/>
<text text-anchor="middle" x="706" y="-14.3" font-family="monospace" font-size="14.00">gameEnd</text>
</g>
<!-- checkGameEnd&#45;&gt;gameEnd -->
<g id="checkGameEnd_to_gameEnd" class="edge">
<title>checkGameEnd&#45;&gt;gameEnd</title>
<path fill="none" stroke="black" d="M638.05,-86.61C642.73,-76.4 649.56,-63.66 658,-54 661.6,-49.87 665.78,-45.95 670.13,-42.33"/>
<polygon fill="black" stroke="black" points="672.34,-45.05 678.08,-36.15 668.04,-39.53 672.34,-45.05"/>
<text text-anchor="middle" x="713" y="-57.8" font-family="Times New Roman,serif" font-size="14.00">if(shouldGameEnd)</text>
</g>
<!-- gameEnd&#45;&gt;idle -->
<g id="gameEnd_to_idle" class="edge">
<title>gameEnd&#45;&gt;idle</title>
<path fill="none" stroke="black" d="M743.03,-33.74C752.29,-38.94 761.44,-45.63 768,-54 782.24,-72.16 782,-80.92 782,-104 782,-802 782,-802 782,-802 782,-825.08 782.18,-833.79 768,-852 761.53,-860.31 752.5,-866.99 743.36,-872.2"/>
<polygon fill="black" stroke="black" points="741.54,-869.21 734.28,-876.93 744.77,-875.42 741.54,-869.21"/>
<text text-anchor="middle" x="824.5" y="-449.3" font-family="Times New Roman,serif" font-size="14.00">manual: &quot;reset&quot;</text>
</g>
</g>
</svg>
