<?xml version="1.0" encoding="UTF-8" standalone="no"?>
<svg
   xmlns:dc="http://purl.org/dc/elements/1.1/"
   xmlns:cc="http://creativecommons.org/ns#"
   xmlns:rdf="http://www.w3.org/1999/02/22-rdf-syntax-ns#"
   xmlns:svg="http://www.w3.org/2000/svg"
   xmlns="http://www.w3.org/2000/svg"
   xmlns:sodipodi="http://sodipodi.sourceforge.net/DTD/sodipodi-0.dtd"
   xmlns:inkscape="http://www.inkscape.org/namespaces/inkscape"
   width="190.4024mm"
   height="114.6572mm"
   viewBox="0 0 19040.24 11465.72"
   version="1.1"
   xml:space="preserve"
   id="svg4495"
   sodipodi:docname="cost-chart.svg"
   inkscape:version="0.92.1 r15371"
   style="stroke-width:28.22200012;stroke-linejoin:round"><metadata
     id="metadata4501"><rdf:RDF><cc:Work
         rdf:about=""><dc:format>image/svg+xml</dc:format><dc:type
           rdf:resource="http://purl.org/dc/dcmitype/StillImage" /><dc:title /></cc:Work></rdf:RDF></metadata><defs
     id="defs4499"><inkscape:path-effect
       effect="bspline"
       id="path-effect7497"
       is_visible="true"
       weight="33.333333"
       steps="2"
       helper_size="0"
       apply_no_weight="true"
       apply_with_weight="true"
       only_selected="false" /><inkscape:path-effect
       effect="bspline"
       id="path-effect7493"
       is_visible="true"
       weight="33.333333"
       steps="2"
       helper_size="0"
       apply_no_weight="true"
       apply_with_weight="true"
       only_selected="false" /><inkscape:path-effect
       effect="bspline"
       id="path-effect7489"
       is_visible="true"
       weight="33.333333"
       steps="2"
       helper_size="0"
       apply_no_weight="true"
       apply_with_weight="true"
       only_selected="false" /><inkscape:path-effect
       effect="bspline"
       id="path-effect7485"
       is_visible="true"
       weight="33.333333"
       steps="2"
       helper_size="0"
       apply_no_weight="true"
       apply_with_weight="true"
       only_selected="false" /></defs><sodipodi:namedview
     pagecolor="#031a8c"
     bordercolor="#666666"
     borderopacity="1"
     objecttolerance="10"
     gridtolerance="10"
     guidetolerance="10"
     inkscape:pageopacity="0"
     inkscape:pageshadow="2"
     inkscape:window-width="1701"
     inkscape:window-height="1051"
     id="namedview4497"
     showgrid="false"
     inkscape:zoom="1.3646356"
     inkscape:cx="367.53683"
     inkscape:cy="165.98481"
     inkscape:window-x="-9"
     inkscape:window-y="-9"
     inkscape:window-maximized="1"
     inkscape:current-layer="svg4495"
     showborder="false"
     inkscape:pagecheckerboard="false"
     fit-margin-top="0"
     fit-margin-left="0"
     fit-margin-right="0"
     fit-margin-bottom="0" /><text
     xml:space="preserve"
     style="font-style:normal;font-variant:normal;font-weight:normal;font-stretch:normal;font-size:630.66809082px;line-height:76.87197876px;font-family:sans-serif;-inkscape-font-specification:'sans-serif, Normal';text-align:start;letter-spacing:0px;word-spacing:0px;writing-mode:lr-tb;text-anchor:start;fill:#ffffff;fill-opacity:1;stroke:none;stroke-width:26.45833397px;stroke-linecap:butt;stroke-linejoin:miter;stroke-opacity:1"
     x="-22.479868"
     y="3925.8757"
     id="text4505"><tspan
       sodipodi:role="line"
       x="-22.479868"
       y="3925.8757"
       style="font-style:normal;font-variant:normal;font-weight:normal;font-stretch:normal;font-size:630.66809082px;line-height:100%;font-family:Arial;-inkscape-font-specification:'Arial, Normal';font-variant-ligatures:normal;font-variant-caps:normal;font-variant-numeric:normal;font-feature-settings:normal;text-align:start;writing-mode:lr-tb;text-anchor:start;fill:#ffffff;fill-opacity:1;stroke-width:26.45833397px"
       id="tspan4515">Foot pedals</tspan><tspan
       sodipodi:role="line"
       x="-22.479868"
       y="4556.5435"
       style="font-style:normal;font-variant:normal;font-weight:normal;font-stretch:normal;font-size:630.66809082px;line-height:100%;font-family:Arial;-inkscape-font-specification:'Arial, Normal';font-variant-ligatures:normal;font-variant-caps:normal;font-variant-numeric:normal;font-feature-settings:normal;text-align:start;writing-mode:lr-tb;text-anchor:start;fill:#ffffff;fill-opacity:1;stroke-width:26.45833397px"
       id="tspan7501">$35</tspan></text>
<text
     xml:space="preserve"
     style="font-style:normal;font-variant:normal;font-weight:normal;font-stretch:normal;font-size:630.66815186px;line-height:76.87198639px;font-family:sans-serif;-inkscape-font-specification:'sans-serif, Normal';text-align:start;letter-spacing:0px;word-spacing:0px;writing-mode:lr-tb;text-anchor:start;fill:#ffffff;fill-opacity:1;stroke:none;stroke-width:26.45833588px;stroke-linecap:butt;stroke-linejoin:miter;stroke-opacity:1"
     x="11145.28"
     y="2197.7068"
     id="text4505-8"><tspan
       sodipodi:role="line"
       x="11145.28"
       y="2197.7068"
       style="font-style:normal;font-variant:normal;font-weight:normal;font-stretch:normal;font-size:630.66815186px;line-height:100%;font-family:Arial;-inkscape-font-specification:'Arial, Normal';font-variant-ligatures:normal;font-variant-caps:normal;font-variant-numeric:normal;font-feature-settings:normal;text-align:start;writing-mode:lr-tb;text-anchor:start;fill:#ffffff;fill-opacity:1;stroke-width:26.45833588px"
       id="tspan4511-6">Shitty connectors</tspan><tspan
       sodipodi:role="line"
       x="11145.28"
       y="2828.3748"
       style="font-style:normal;font-variant:normal;font-weight:normal;font-stretch:normal;font-size:630.66815186px;line-height:100%;font-family:Arial;-inkscape-font-specification:'Arial, Normal';font-variant-ligatures:normal;font-variant-caps:normal;font-variant-numeric:normal;font-feature-settings:normal;text-align:start;writing-mode:lr-tb;text-anchor:start;fill:#ffffff;fill-opacity:1;stroke-width:26.45833588px"
       id="tspan4515-4">$3.92</tspan></text>
<text
     xml:space="preserve"
     style="font-style:normal;font-variant:normal;font-weight:normal;font-stretch:normal;font-size:630.66821289px;line-height:76.87200165px;font-family:sans-serif;-inkscape-font-specification:'sans-serif, Normal';text-align:start;letter-spacing:0px;word-spacing:0px;writing-mode:lr-tb;text-anchor:start;fill:#ffffff;fill-opacity:1;stroke:none;stroke-width:26.45833969px;stroke-linecap:butt;stroke-linejoin:miter;stroke-opacity:1"
     x="12962.36"
     y="7166.397"
     id="text4505-8-2"><tspan
       sodipodi:role="line"
       x="12962.36"
       y="7166.397"
       style="font-style:normal;font-variant:normal;font-weight:normal;font-stretch:normal;font-size:630.66821289px;line-height:100%;font-family:Arial;-inkscape-font-specification:'Arial, Normal';font-variant-ligatures:normal;font-variant-caps:normal;font-variant-numeric:normal;font-feature-settings:normal;text-align:start;writing-mode:lr-tb;text-anchor:start;fill:#ffffff;fill-opacity:1;stroke-width:26.45833969px"
       id="tspan4511-6-9">Non-shitty connectors</tspan><tspan
       sodipodi:role="line"
       x="12962.36"
       y="7797.0654"
       style="font-style:normal;font-variant:normal;font-weight:normal;font-stretch:normal;font-size:630.66821289px;line-height:100%;font-family:Arial;-inkscape-font-specification:'Arial, Normal';font-variant-ligatures:normal;font-variant-caps:normal;font-variant-numeric:normal;font-feature-settings:normal;text-align:start;writing-mode:lr-tb;text-anchor:start;fill:#ffffff;fill-opacity:1;stroke-width:26.45833969px"
       id="tspan4515-4-6">$9.52</tspan></text>
<text
     xml:space="preserve"
     style="font-style:normal;font-variant:normal;font-weight:normal;font-stretch:normal;font-size:630.66827393px;line-height:76.87200928px;font-family:sans-serif;-inkscape-font-specification:'sans-serif, Normal';text-align:start;letter-spacing:0px;word-spacing:0px;writing-mode:lr-tb;text-anchor:start;fill:#ffffff;fill-opacity:1;stroke:none;stroke-width:26.45834351px;stroke-linecap:butt;stroke-linejoin:miter;stroke-opacity:1"
     x="7741.0249"
     y="459.14374"
     id="text4505-8-2-7"><tspan
       sodipodi:role="line"
       x="7741.0249"
       y="459.14374"
       style="font-style:normal;font-variant:normal;font-weight:normal;font-stretch:normal;font-size:630.66827393px;line-height:100%;font-family:Arial;-inkscape-font-specification:'Arial, Normal';font-variant-ligatures:normal;font-variant-caps:normal;font-variant-numeric:normal;font-feature-settings:normal;text-align:start;writing-mode:lr-tb;text-anchor:start;fill:#ffffff;fill-opacity:1;stroke-width:26.45834351px"
       id="tspan4511-6-9-0">Sales tax</tspan><tspan
       sodipodi:role="line"
       x="7741.0249"
       y="1089.812"
       style="font-style:normal;font-variant:normal;font-weight:normal;font-stretch:normal;font-size:630.66827393px;line-height:100%;font-family:Arial;-inkscape-font-specification:'Arial, Normal';font-variant-ligatures:normal;font-variant-caps:normal;font-variant-numeric:normal;font-feature-settings:normal;text-align:start;writing-mode:lr-tb;text-anchor:start;fill:#ffffff;fill-opacity:1;stroke-width:26.45834351px"
       id="tspan4515-4-6-3">$4.27</tspan></text>
<g
     id="g5221"
     style="fill:#e3a147;fill-opacity:1"
     transform="translate(562.26854,1454.1428)"><path
       id="path4487"
       d="m 5945.7867,1373.576 c -453.0001,0 -904.0001,71 -1335,211 -431.0002,140 -837.0002,347.0001 -1204.0003,613.0001 -367,267 -689.0001,589.0001 -956.0001,956.0001 -266.0001,367.0001 -473.0001,773.0001 -613.0001,1204.0003 -140,430.9999 -211,881.9999 -211,1335 0,452.0001 71,903.0001 211,1334.0003 140,430.9999 347,837.0001 613.0001,1204 267,367.0001 589.0001,689.0001 956.0001,956.0002 367.0001,266.0002 773.0001,473 1204.0003,613 430.9999,140 881.9999,212 1335,212 452.0001,0 902.9998,-72 1333.9998,-212 431,-140 837.001,-346.9998 1204,-613 367.001,-267.0001 689.001,-589.0001 956.0006,-956.0002 40,-55 78,-110.9999 115,-167.9999 L 7749.7865,6877.5767 c -18,28.0001 -38,56.0001 -58,83.0001 -133,183.9999 -294,345 -478,477.9999 -183,133.0002 -386,237 -602,307 -214.9995,70.0001 -439.9996,106.0001 -665.9998,106.0001 -226.9998,0 -451.9999,-36 -667.0001,-106.0001 -216,-70 -419,-173.9998 -602.0001,-307 -184,-132.9999 -345,-294 -478,-477.9999 -133,-183.0002 -237,-386.0001 -307,-602.0002 -70,-214.9998 -106,-439.9999 -106,-666.0001 0,-226.9998 36,-451.9999 106,-667.0001 70,-216 174,-419 307,-602.0001 133,-184 294,-345 478,-478 183.0001,-133 386.0001,-237 602.0001,-307 215.0002,-70 440.0003,-106 667.0001,-106 z"
       style="fill:#e3a147;fill-opacity:1;stroke:none;stroke-width:1.00000012"
       inkscape:connector-curvature="0" /><path
       id="path4489"
       d="m 11416.09,8237.074 c 212,-322 379,-670.0001 498,-1036.0001 140,-431.0002 212,-882.0002 212,-1334.0003 0,-453.0001 -72,-904.0001 -212,-1335 -116,-358.0002 -279,-700.0002 -485,-1016.0002 L 9618.0904,4691.0736 c 101.999,158 184,328.9999 241.999,508.9999 70,215.0002 106,440.0003 106,667.0001 0,226.0002 -36,451.0003 -106,666.0001 -59,183.0002 -142.999,358.0001 -249,519.0001 z"
       style="fill:#e3a147;fill-opacity:1;stroke:none;stroke-width:1.00000012"
       inkscape:connector-curvature="0" /><path
       id="path4491"
       d="m 11021.93,2430.3135 c -41,-64 -84,-127.0001 -128,-188.0001 -267,-367 -589,-689.0001 -956.0006,-956.0001 -127.999,-92 -260,-178 -396.999,-256 l -1071.001,1875.0002 c 68,40 135,82 198,129 184,133 345,294 478,478 23,30 44.001,61.0002 65.001,93.0002 z"
       style="fill:#e3a147;fill-opacity:1;stroke:none;stroke-width:1.00000012"
       inkscape:connector-curvature="0" /><path
       id="path4493"
       d="m 8765.3875,584.37615 c -256,-146.0001 -527,-266.0001 -807.001,-357.0001 -431,-140 -881.9997,-211 -1333.9998,-211 v 0 2159.00025 0 c 226.0002,0 451.0003,36 665.9998,106 141,46 276,105 404,178 z"
       style="fill:#e3a147;fill-opacity:1;stroke:none;stroke-width:1.00000012"
       inkscape:connector-curvature="0" /></g><text
     xml:space="preserve"
     style="font-style:normal;font-variant:normal;font-weight:normal;font-stretch:normal;font-size:1471.39172363px;line-height:179.34757996px;font-family:sans-serif;-inkscape-font-specification:'sans-serif, Normal';text-align:start;letter-spacing:0px;word-spacing:0px;writing-mode:lr-tb;text-anchor:start;fill:#000000;fill-opacity:1;stroke:none;stroke-width:26.45833015px;stroke-linecap:butt;stroke-linejoin:miter;stroke-opacity:1"
     x="5298.3491"
     y="7469.1055"
     id="text4512"><tspan
       sodipodi:role="line"
       x="5298.3491"
       y="7469.1055"
       style="font-style:normal;font-variant:normal;font-weight:bold;font-stretch:normal;font-family:Arial;-inkscape-font-specification:'Arial Bold';fill:#ffffff;fill-opacity:1;stroke-width:26.45833015px"
       id="tspan4514">$51.71</tspan></text>
</svg>