<?xml version="1.0" encoding="UTF-8"?>
<!DOCTYPE svg PUBLIC "-//W3C//DTD SVG 1.1//EN" "http://www.w3.org/Graphics/SVG/1.1/DTD/svg11.dtd">
<svg width="134mm" height="90mm" viewBox="0 0 13400 9000" version="1.1" xmlns="http://www.w3.org/2000/svg" stroke-width="28.222" stroke-linejoin="round" xml:space="preserve">
 <path fill="rgb(255,255,255)" stroke="none" d="M 6682,8999 L 0,8999 0,0 13364,0 13364,8999 6682,8999 Z"/>
 <path fill="rgb(0,69,134)" stroke="none" d="M 6565,180 C 6112,180 5661,251 5230,391 4799,531 4393,738 4026,1004 3659,1271 3337,1593 3070,1960 2804,2327 2597,2733 2457,3164 2317,3595 2246,4046 2246,4499 2246,4951 2317,5402 2457,5833 2597,6264 2804,6670 3070,7037 3337,7404 3659,7726 4026,7993 4393,8259 4799,8466 5230,8606 5661,8746 6112,8818 6565,8818 7017,8818 7468,8746 7899,8606 8330,8466 8736,8259 9103,7993 9470,7726 9792,7404 10059,7037 10099,6982 10137,6926 10174,6869 L 8369,5684 C 8351,5712 8331,5740 8311,5767 8178,5951 8017,6112 7833,6245 7650,6378 7447,6482 7231,6552 7016,6622 6791,6658 6565,6658 6338,6658 6113,6622 5898,6552 5682,6482 5479,6378 5296,6245 5112,6112 4951,5951 4818,5767 4685,5584 4581,5381 4511,5165 4441,4950 4405,4725 4405,4499 4405,4272 4441,4047 4511,3832 4581,3616 4685,3413 4818,3230 4951,3046 5112,2885 5296,2752 5479,2619 5682,2515 5898,2445 6113,2375 6338,2339 6565,2339 L 6565,180 Z"/>
 <path fill="rgb(255,66,14)" stroke="none" d="M 10174,6869 C 10386,6547 10553,6199 10672,5833 10812,5402 10884,4951 10884,4499 10884,4046 10812,3595 10672,3164 10556,2806 10393,2464 10187,2148 L 8376,3323 C 8478,3481 8560,3652 8618,3832 8688,4047 8724,4272 8724,4499 8724,4725 8688,4950 8618,5165 8559,5348 8475,5523 8369,5684 L 10174,6869 Z"/>
 <path fill="rgb(255,211,32)" stroke="none" d="M 10187,2148 C 10146,2084 10103,2021 10059,1960 9792,1593 9470,1271 9103,1004 8975,912 8843,826 8706,748 L 7635,2623 C 7703,2663 7770,2705 7833,2752 8017,2885 8178,3046 8311,3230 8334,3260 8355,3291 8376,3323 L 10187,2148 Z"/>
 <path fill="rgb(87,157,28)" stroke="none" d="M 8706,748 C 8450,602 8179,482 7899,391 7468,251 7017,180 6565,180 L 6565,180 6565,2339 6565,2339 C 6791,2339 7016,2375 7231,2445 7372,2491 7507,2550 7635,2623 L 8706,748 Z"/>
 <text class="TextShape"><tspan class="TextParagraph" font-family="Liberation Sans, sans-serif" font-size="353px" font-weight="400"><tspan class="TextPosition" x="3195" y="6154"><tspan fill="rgb(0,0,0)" stroke="none">pedals</tspan></tspan></tspan></text>
 <text class="TextShape"><tspan class="TextParagraph" font-family="Liberation Sans, sans-serif" font-size="353px" font-weight="400"><tspan class="TextPosition" x="8492" y="4625"><tspan fill="rgb(0,0,0)" stroke="none">good connectors</tspan></tspan></tspan></text>
 <text class="TextShape"><tspan class="TextParagraph" font-family="Liberation Sans, sans-serif" font-size="353px" font-weight="400"><tspan class="TextPosition" x="7424" y="2261"><tspan fill="rgb(0,0,0)" stroke="none">shitty connectors</tspan></tspan></tspan></text>
 <text class="TextShape"><tspan class="TextParagraph" font-family="Liberation Sans, sans-serif" font-size="353px" font-weight="400"><tspan class="TextPosition" x="7152" y="1485"><tspan fill="rgb(0,0,0)" stroke="none">tax</tspan></tspan></tspan></text>
</svg>